<svg xmlns:xlink="http://www.w3.org/1999/xlink" width="24" height="24" viewBox="0 0 24 24" fill="none" xmlns="http://www.w3.org/2000/svg"><g clip-path="url(#clip0_2102_7731)" fill="none"><path d="M0 4C0 1.79086 1.79086 0 4 0H20C22.2091 0 24 1.79086 24 4V20C24 22.2091 22.2091 24 20 24H4C1.79086 24 0 22.2091 0 20V4Z" fill="#B0006E"></path><path d="M17.1582 4.0006C15.0389 4.0006 13.321 5.61679 13.321 7.60848C13.321 9.60017 15.0434 11.2164 17.1582 11.2164C19.2731 11.2164 21 9.60017 21 7.60848C21 5.61679 19.2821 4.0006 17.1582 4.0006ZM17.1582 9.14782C16.7339 9.15546 16.3238 8.99786 16.0181 8.70963C15.7124 8.42141 15.536 8.02614 15.5278 7.61068C15.5497 7.20176 15.731 6.81667 16.0344 6.53481C16.3378 6.25295 16.74 6.09582 17.1582 6.09582C17.5764 6.09582 17.9787 6.25295 18.2821 6.53481C18.5854 6.81667 18.7668 7.20176 18.7887 7.61068C18.7804 8.02614 18.6041 8.42141 18.2984 8.70963C17.9926 8.99786 17.5826 9.15546 17.1582 9.14782ZM12.2243 6.71036V11.2317H10.0085V6.6884C10.0085 6.5195 9.93995 6.35753 9.81798 6.2381C9.69601 6.11868 9.53058 6.05158 9.35809 6.05158C9.18559 6.05158 9.02017 6.11868 8.8982 6.2381C8.77622 6.35753 8.7077 6.5195 8.7077 6.6884V11.2317H6.50087V6.6884C6.50087 6.5195 6.43235 6.35753 6.31038 6.2381C6.18841 6.11868 6.02298 6.05158 5.85049 6.05158C5.67799 6.05158 5.51256 6.11868 5.39059 6.2381C5.26862 6.35753 5.2001 6.5195 5.2001 6.6884V11.2317H3V6.71036C3.01649 5.97726 3.32905 5.28044 3.86921 4.77254C4.40938 4.26464 5.13311 3.98706 5.88188 4.0006C6.50175 3.99936 7.10616 4.18996 7.60877 4.54519C8.11097 4.19081 8.71439 4.00027 9.33342 4.0006C10.0836 3.98529 10.8093 4.26202 11.3512 4.77005C11.8932 5.27807 12.2072 5.9759 12.2243 6.71036ZM17.1582 12.7689C15.0389 12.7689 13.321 14.3829 13.321 16.3767C13.321 18.3706 15.0434 19.9912 17.1582 19.9912C19.2731 19.9912 20.9955 18.3772 20.9955 16.3855C20.9955 14.3938 19.2821 12.7689 17.1582 12.7689ZM17.1582 17.9161C16.8506 17.9045 16.5532 17.8045 16.3032 17.6287C16.0531 17.4529 15.8613 17.209 15.7517 16.9273C15.6421 16.6456 15.6196 16.3385 15.6868 16.0444C15.754 15.7502 15.9081 15.4819 16.1299 15.2728C16.3517 15.0637 16.6313 14.9231 16.9341 14.8684C17.2369 14.8138 17.5494 14.8475 17.8327 14.9654C18.1161 15.0832 18.3578 15.2801 18.5277 15.5314C18.6977 15.7828 18.7885 16.0775 18.7887 16.3789C18.7858 16.5854 18.7412 16.7893 18.6576 16.9788C18.574 17.1684 18.453 17.3399 18.3015 17.4836C18.15 17.6272 17.971 17.7402 17.7748 17.8159C17.5786 17.8916 17.3691 17.9286 17.1582 17.9249V17.9161ZM12.2243 15.4874V20H10.0085V15.4633C10.0085 15.2944 9.93995 15.1324 9.81798 15.013C9.69601 14.8935 9.53058 14.8264 9.35809 14.8264C9.18559 14.8264 9.02017 14.8935 8.8982 15.013C8.77622 15.1324 8.7077 15.2944 8.7077 15.4633V20H6.50087V15.4633C6.50087 15.2944 6.43235 15.1324 6.31038 15.013C6.18841 14.8935 6.02298 14.8264 5.85049 14.8264C5.67799 14.8264 5.51256 14.8935 5.39059 15.013C5.26862 15.1324 5.2001 15.2944 5.2001 15.4633V20H3V15.4874C3.00671 15.1236 3.0866 14.7646 3.2351 14.431C3.3836 14.0974 3.5978 13.7957 3.86545 13.5433C4.1331 13.2908 4.44895 13.0924 4.79495 12.9596C5.14094 12.8267 5.51029 12.7619 5.88188 12.7689C6.50136 12.7679 7.10548 12.9576 7.60877 13.3113C8.11103 12.9573 8.71456 12.7674 9.33342 12.7689C9.70568 12.761 10.0759 12.8251 10.4228 12.9576C10.7697 13.09 11.0865 13.2882 11.355 13.5408C11.6236 13.7933 11.8386 14.0952 11.9877 14.4293C12.1369 14.7633 12.2173 15.1229 12.2243 15.4874Z" fill="#FFFFFF"></path></g><defs><clipPath id="clip0_2102_7731"><rect width="24" height="24" fill="white"></rect></clipPath></defs></svg>