<svg xmlns:xlink="http://www.w3.org/1999/xlink" width="250" height="250" viewBox="0 0 150 150" fill="none" xmlns="http://www.w3.org/2000/svg"><g filter="url(#filter0_dd_2588_71204)" fill="none"><mask id="mask0_2588_71204" maskUnits="userSpaceOnUse" x="11" y="11" width="128" height="128" style="mask-type: alpha;" fill="none"><circle cx="75" cy="75.0003" r="63.932" fill="#D9D9D9"></circle></mask><g mask="url(#mask0_2588_71204)" fill="none"><rect width="230" height="230" transform="translate(-42 -4)" fill="#FFFFFF"></rect><path d="M-2.44565 39.2285C16.1196 24.027 32.0327 19.5635 48.9809 24.3504C65.929 29.1373 76.8611 51.6485 96.8495 57.0823C116.838 62.5807 133.851 65.7504 148.664 77.9763C163.478 90.2022 166.712 103.981 160.89 123.646C155.068 143.311 125.894 154.113 91.9333 150.038C57.9724 145.963 18.7718 139.623 0.206533 118.341C-18.4234 97.1238 -25.7978 58.3113 -2.44565 39.2285Z" fill="#CAE3FF"></path><path d="M74.4031 29.7195C75.3734 39.2285 83.9121 46.6676 103.577 53.0717C123.177 59.411 134.886 60.5107 141.225 55.7238C147.565 50.937 143.36 38.1936 134.886 30.237C126.412 22.2804 110.499 15.8764 100.407 15.3589C90.3162 14.8414 72.8506 14.2592 74.4031 29.7195Z" fill="#CAE3FF"></path><path d="M36.516 134.736C30.6604 132.322 27.0827 127.725 24.1458 122.466C23.3316 121.009 23.4545 119.747 24.2861 118.324C26.9719 113.727 30.8121 110.367 35.342 107.716C36.5586 107.005 37.7902 106.298 39.0797 105.737C39.9869 105.343 40.1903 104.773 40.1564 103.875C40.0772 101.785 40.0555 99.6944 40.5907 97.6384C40.9166 96.3843 41.2315 95.1054 41.9531 94.039C42.5829 93.1081 42.3402 92.606 41.6268 91.8749C35.7822 85.8881 32.08 78.7232 30.7767 70.4935C28.6981 57.3717 32.0681 45.7053 41.0711 35.8597C47.7087 28.6006 56.0366 24.3344 65.7911 23.1482C87.8221 20.469 107.192 35.1302 111.121 56.5456C111.857 60.5588 111.917 64.6248 111.38 68.6786C111.284 69.4049 111.305 69.9275 111.927 70.4529C113.073 71.4204 113.527 72.7556 113.524 74.2363C113.522 75.2196 113.467 76.2029 113.435 77.1866C113.322 80.6862 113.778 84.0401 115.829 87.0227C116.908 88.5924 117.892 90.2272 118.958 91.8068C120.925 94.7224 121.805 97.8614 121.297 101.405C120.914 104.077 120.895 106.76 121.086 109.484C121.43 114.38 120.855 119.224 118.555 123.657C116.59 127.442 113.919 130.608 109.806 132.272C109.096 132.56 108.441 132.615 107.683 132.451C105.197 131.911 102.871 131.004 100.703 129.68C100.191 129.367 99.6835 129.046 98.9572 128.594C99.1862 131.366 99.3986 133.901 99.6031 136.437C99.6575 137.111 99.7612 137.792 99.7166 138.462C99.544 141.082 100.118 143.515 101.006 145.992C103.477 152.878 106.392 159.577 109.211 166.319C110.848 170.233 112.308 174.213 113.583 178.258C113.811 178.981 114.037 179.41 114.929 179.404C115.772 179.399 116.617 179.683 117.462 179.84C119.808 180.278 121.663 181.483 123.092 183.389C124.772 185.63 126.035 188.065 126.586 190.829C126.908 192.446 126.753 194.036 125.974 195.492C125.122 197.088 123.894 198.171 121.93 198.224C114.665 198.42 107.398 198.438 100.14 198.091C97.0848 197.945 94.01 197.794 90.997 197.124C90.3239 196.975 89.7122 196.732 89.1211 196.401C88.3336 195.961 87.9123 195.391 87.7421 194.406C87.1336 190.887 86.7864 187.345 86.4774 183.794C85.8772 176.904 84.7752 170.136 81.6847 163.84C81.0316 162.51 80.2442 161.272 79.4221 160.048C78.8175 159.147 77.5603 159.142 76.9345 160.03C73.0285 165.577 69.7223 171.433 67.2422 177.775C65.5661 182.061 63.6389 186.256 61.4098 190.296C59.7707 193.268 57.6165 195.743 54.5054 197.255C53.958 197.521 53.4213 197.809 52.7777 197.845C48.9135 198.06 45.0512 198.3 41.1878 198.526C37.6274 198.735 34.0682 198.973 30.5051 199.128C28.1082 199.231 25.7033 199.148 23.3568 198.592C18.9424 197.548 17.1409 193.626 19.143 189.509C20.2363 187.261 21.9073 185.436 23.6126 183.673C26.1167 181.085 28.9303 178.781 32.5687 178.159C34.4418 177.838 35.4819 176.849 36.5121 175.518C42.7425 167.467 47.9708 158.811 52.4348 149.35C51.8358 149.35 51.3889 149.336 50.9427 149.352C48.0456 149.454 45.1761 149.19 42.3319 148.662C38.4858 147.947 34.769 143.574 34.7725 139.721C34.7745 137.912 35.5162 136.301 36.516 134.736Z" fill="black"></path><path d="M97.2182 119.482C96.9206 118.102 96.6467 116.716 96.3074 115.346C96.2306 115.035 96.0615 114.577 95.583 114.676C95.0825 114.779 95.2177 115.253 95.2209 115.583C95.2406 118.057 95.7742 120.464 96.2542 122.871C97.3861 128.549 98.2078 134.268 98.1948 140.063C98.1901 142.014 98.6386 143.758 99.2569 145.574C102.032 153.727 105.647 161.536 108.856 169.51C110.137 172.694 111.226 175.946 112.312 179.193C111.965 179.66 111.447 179.634 110.984 179.766C108.825 180.382 106.888 181.406 105.256 182.967C104.992 183.219 104.729 183.483 104.517 183.778C104.349 184.01 104.156 184.283 104.438 184.592C104.74 184.923 105.067 184.947 105.411 184.693C105.905 184.328 106.406 183.968 106.87 183.566C108.2 182.416 109.743 181.655 111.422 181.231C115.454 180.213 120.75 181.38 123.062 186.007C123.917 187.718 124.813 189.395 125.117 191.303C125.496 193.68 124.628 195.569 122.902 196.539C121.952 197.074 121.037 196.953 120.078 196.721C116.802 196.313 113.493 196.504 110.21 196.174C108.801 196.032 107.412 195.799 106.018 195.577C98.5518 194.388 93.6771 190.246 91.4824 182.955C89.5705 176.603 87.5807 170.276 85.3847 164.014C84.5149 161.534 84.6533 159.055 86.0543 156.738C86.0701 155.749 85.3386 156.011 84.8996 156.169C83.8067 156.56 82.7564 157.073 81.6923 157.545C80.8553 157.917 80.0402 158.309 79.0936 158.393C77.5546 158.529 76.1878 158.058 74.8617 157.376C73.8185 156.84 72.765 156.346 71.5508 156.402C71.3076 156.412 71.0451 156.406 70.828 156.497C70.4323 156.66 70.4839 156.973 70.7504 157.2C70.9234 157.349 71.1925 157.466 71.416 157.462C73.1134 157.428 74.4136 158.438 75.9782 159.122C75.3129 160.031 74.6997 160.902 74.0518 161.746C71.1874 165.481 69.0478 169.616 67.2519 173.946C65.158 178.993 62.975 184.002 60.4709 188.861C59.0127 191.691 57.1131 194.154 54.2278 195.704C53.52 196.085 52.8153 196.433 51.9869 196.44C47.3747 196.485 42.7857 196.965 38.1817 197.171C37.8144 197.187 37.4448 197.158 37.0763 197.15C33.9538 197.291 30.992 196.56 28.7724 194.39C25.7674 191.452 26.5323 186.448 30.2736 183.398C33.2838 180.943 36.666 179.285 40.6709 179.264C41.2227 179.298 41.7744 179.334 42.3266 179.367C42.6619 179.386 42.9425 179.272 43.0714 178.951C43.2468 178.516 42.9619 178.18 42.6411 178.062C41.8986 177.79 41.1261 177.57 40.3206 177.563C39.2908 177.555 38.2609 177.561 37.0834 177.561C37.2844 176.784 37.747 176.446 38.0607 176.03C46.1466 165.321 52.8547 153.848 57.3543 141.155C58.3462 138.356 58.736 135.42 59.086 132.499C59.7808 126.69 60.1473 120.857 59.8206 115.003C59.7146 113.099 59.5873 111.197 59.4265 109.298C59.3808 108.754 59.2003 108.22 59.0497 107.69C58.9764 107.431 58.7411 107.309 58.4798 107.322C58.198 107.336 58.0286 107.537 58.0215 107.798C57.9978 108.719 57.9533 109.644 58.0128 110.562C58.0617 111.309 57.8623 111.795 57.2092 112.243C53.2106 114.985 48.799 116.788 44.1229 117.921C42.5843 118.294 40.9326 118.098 39.3495 117.847C38.5703 117.723 37.8207 117.7 36.9088 117.67C37.1898 118.57 37.7596 118.606 38.2807 118.677C39.2521 118.81 40.2299 119.023 41.201 119.001C42.5465 118.971 43.7217 119.405 44.9013 119.946C49.0181 121.834 52.8126 124.164 55.79 127.668C56.181 128.128 56.6764 128.995 57.409 128.368C58.1346 127.746 57.4516 127.089 56.9582 126.698C55.5055 125.546 55.2095 124.086 55.3502 122.321C55.5059 120.361 55.4645 118.38 55.3995 116.412C55.3632 115.312 55.6399 114.531 56.6977 114.082C57.141 113.894 57.5367 113.594 57.9324 113.358C58.3423 113.552 58.2134 113.895 58.2327 114.177C58.602 119.598 58.3316 125 57.7302 130.391C57.56 131.916 57.3649 133.438 57.1887 134.963C56.6953 139.23 54.9853 143.118 53.4447 147.061C53.1893 147.715 52.8165 148 52.0957 148.013C48.9558 148.067 45.8254 148.041 42.7171 147.509C39.7712 147.004 35.6334 143.055 36.1375 139.241C36.2782 138.176 36.5813 137.207 37.0715 136.279C37.3336 135.783 37.6343 135.254 38.3252 135.432C38.901 135.581 38.9763 136.121 39.0157 136.61C39.0807 137.406 39.1035 138.207 39.139 139.006C39.1516 139.298 39.1607 139.586 39.53 139.907C40.412 138.683 39.7826 137.365 39.9757 136.197C40.8069 135.947 41.7102 136.973 42.4003 135.945C42.2828 135.438 41.8249 135.35 41.4378 135.203C40.8085 134.963 40.1704 134.743 39.5252 134.551C32.7632 132.534 28.4303 127.806 25.2278 121.795C24.6867 120.78 24.7206 120.001 25.3512 118.929C28.856 112.973 34.2951 109.403 40.3048 106.518C44.5111 104.498 48.8471 102.815 53.4479 101.901C54.8572 101.621 56.1995 101.663 57.6049 102.128C67.1116 105.274 76.5682 105.133 85.916 101.456C87.894 100.678 89.6352 101.08 91.2695 102.248C92.124 102.857 92.7565 103.706 93.4332 104.508C95.6492 107.13 97.4038 110.127 99.921 112.5C100.205 112.767 100.155 113.053 100.138 113.332C99.9683 116.162 101.047 118.617 102.401 120.994C102.667 121.462 102.921 121.938 103.181 122.41C103.005 122.595 102.774 122.749 102.537 122.671C100.528 122.006 98.499 121.365 97.2182 119.482Z" fill="#FFFFFF"></path><path d="M99.4215 82.5045C96.4634 87.0947 91.5142 89.8661 86.1843 89.0578C79.7509 88.0816 73.295 87.0778 66.7977 86.7976C62.2028 86.5993 57.6016 87.2133 53.2409 88.99C48.1659 91.0571 47.7044 90.9499 43.4236 87.5097C42.315 86.619 41.3305 85.6133 40.4533 84.4924C35.212 77.7961 33.0224 70.206 33.5193 61.7316C33.772 57.4224 35.0788 53.5617 37.4955 50.0325C40.9916 48.3713 44.7514 47.6643 48.5435 47.3281C62.167 46.121 73.6946 51.3066 84.1381 59.4402C90.3531 64.2806 95.1825 70.3006 98.3393 77.5668C99.0121 79.1152 99.8649 80.6846 99.4215 82.5045Z" fill="#C4241D"></path><path d="M32.4764 56.6309C33.1086 52.5172 34.4761 48.64 36.4877 45.0213C42.6298 33.9733 51.9445 27.1269 64.3853 24.9924C82.7606 21.8399 100.21 31.8983 107.188 48.7697C109.853 55.2094 110.775 63.8198 109.566 69.2794C107.981 69.1509 106.51 69.7184 104.971 70.3955C104.892 67.688 104.425 65.1641 103.933 62.6363C102.879 57.2244 100.079 52.8432 96.0869 49.1772C90.2651 43.8311 83.4349 40.3984 75.7592 38.5587C71.4386 37.523 67.0976 36.7423 62.6422 37.1057C57.9964 37.4844 53.303 37.8379 48.919 39.5243C41.3521 42.4348 36.036 47.6886 33.2875 55.4029C33.1023 55.9227 32.975 56.463 32.8205 56.9943C32.4954 57.0723 32.3093 57.0183 32.4764 56.6309Z" fill="#FFFFFF"></path><path d="M99.4215 82.5049C97.8707 75.7759 94.2142 70.2162 89.6126 65.2477C81.6209 56.6184 71.8269 51.0398 60.36 48.4375C54.1225 47.0218 47.931 47.4416 41.7775 49.0519C40.3634 49.422 38.9876 49.993 37.4955 50.0328C41.5788 44.3187 46.971 40.6409 53.9672 39.481C58.0888 38.7976 62.2194 37.8703 66.4119 38.2313C77.7681 39.2087 87.9912 42.9373 96.2139 51.1655C99.6474 54.6017 101.917 58.6854 102.781 63.5192C103.16 65.6375 103.659 67.7306 103.731 69.8962C103.763 70.8559 103.579 71.6516 102.92 72.4295C101.422 74.1995 100.843 76.3001 101.132 78.6111C101.339 80.2616 100.341 81.3608 99.4215 82.5049Z" fill="#FF8681"></path><path d="M116.021 113.258C116.74 112.924 117.531 112.715 118.086 112.091C118.304 111.846 118.41 111.541 118.28 111.242C118.124 110.882 117.767 110.961 117.481 111.032C117.187 111.104 116.911 111.25 116.629 111.369C113.709 112.61 110.674 112.68 107.586 112.285C105.942 112.074 104.288 111.94 102.646 111.716C101.282 111.53 100.553 110.724 100.621 109.554C100.672 108.684 100.973 108.038 101.989 107.889C102.908 107.754 103.821 107.694 104.745 107.662C105.57 107.633 106.441 107.657 107.226 106.782C106.331 106.412 105.566 106.577 104.816 106.616C103.094 106.707 101.386 106.762 99.738 106.064C98.8576 105.692 98.5194 105.121 98.6755 104.193C98.8548 103.126 99.3025 102.571 100.247 102.489C102.265 102.315 104.288 102.184 106.309 102.045C106.911 102.003 107.554 102.1 107.939 101.467C107.785 100.839 107.275 101.037 106.885 101.01C104.602 100.857 102.345 101.231 100.084 101.423C98.8426 101.528 98.253 100.954 97.7781 100.035C97.1748 98.8658 97.2315 97.6046 97.6875 96.4538C98.0363 95.575 98.8458 95.091 99.9016 95.0981C101.994 95.1115 104.088 95.067 106.181 95.0268C106.777 95.0153 107.437 95.182 107.891 94.5629C107.277 93.8902 106.43 94.0261 105.668 94.0076C103.946 93.965 102.217 93.9497 100.498 94.0474C99.4759 94.1057 98.9203 93.7774 98.5573 92.817C97.6977 90.541 98.9104 88.7151 101.354 88.7199C104.063 88.7258 106.773 88.7498 109.482 88.7455C110.127 88.7447 111.125 88.8858 111.144 88.0928C111.164 87.3042 110.148 87.398 109.51 87.3484C108.59 87.2766 107.651 87.1754 106.744 87.2849C105.641 87.4177 105.278 86.8727 104.936 85.9686C104.001 83.5031 102.835 81.1207 102.582 78.4388C102.217 74.5714 104.841 71.3307 108.492 70.8073C110.124 70.5732 111.737 71.5518 111.958 73.8017C112.071 74.9584 111.983 76.1384 111.938 77.3061C111.795 81.0549 112.248 84.6365 114.53 87.7984C115.536 89.1928 116.335 90.7369 117.349 92.1246C119.623 95.2356 120.422 98.6332 119.605 102.405C119.196 104.291 119.255 106.196 119.442 108.095C119.899 112.751 119.542 117.302 117.778 121.681C117.111 123.338 116.308 124.919 115.012 126.194C113.957 126.505 113.445 125.757 112.891 125.1C111.142 123.023 110.511 120.539 110.387 117.911C110.292 115.904 111.036 114.962 112.949 114.423C114.009 114.124 115.099 113.916 116.021 113.258Z" fill="#FFFFFF"></path><path d="M89.1728 98.1221C86.2411 99.9878 82.9743 101.005 79.6272 101.749C68.7754 104.159 58.6607 102.252 49.3562 96.2461C44.2766 92.9675 40.1818 88.6781 37.2094 83.3702C37.1164 82.9899 37.302 82.8788 37.6449 82.9198C39.8267 85.9863 42.2725 88.7648 45.5688 90.7223C47.0199 91.5838 48.3855 91.9121 50.0798 91.4778C52.5761 90.8378 54.8461 89.5719 57.3783 89.0556C59.054 88.7143 60.7112 88.3112 62.4398 88.4456C64.4146 90.2758 65.9753 92.5135 68.2123 94.0959C72.6456 97.2322 77.4221 98.9012 82.9266 98.0164C84.3738 97.7843 85.8627 97.8423 87.3233 97.6137C87.972 97.512 88.6901 97.4718 89.1728 98.1221Z" fill="#D2D2D6"></path><path d="M89.1729 98.1224C87.0234 97.8107 84.8807 98.271 82.8112 98.5744C79.4767 99.0635 76.3289 98.6592 73.3002 97.5068C68.9197 95.8393 65.3814 92.9623 62.6459 89.1356C62.5139 88.9511 62.5056 88.6776 62.4398 88.4459C62.7807 88.4325 63.1212 88.4187 63.4625 88.4053C65.3893 88.1586 67.3177 88.1988 69.246 88.3832C69.6926 88.3399 70.1367 88.3265 70.5679 88.4857C71.0546 88.7943 71.6513 88.4869 72.1431 88.7675C72.3567 88.7951 72.5703 88.8226 72.7839 88.8502C73.1737 89.104 73.6494 88.9503 74.0573 89.1178C74.5023 89.0567 74.9421 89.0666 75.3709 89.2152C76.3687 89.6132 77.4466 89.1474 78.4485 89.5013C80.2432 89.3748 81.9753 89.8402 83.7267 90.0936C85.3075 90.3222 86.8953 90.4097 88.4832 90.4795C91.8713 90.6292 94.6427 89.1431 97.1705 87.0685C98.8951 85.6532 100.238 83.9089 101.499 81.8982C102.3 82.9863 102.576 84.1706 102.97 85.2769C103.286 86.1636 102.492 87.1252 101.473 87.018C99.3405 86.7942 98.1806 88.0246 97.217 89.612C96.7591 90.366 96.5687 91.209 96.7736 92.0894C96.9179 92.7105 96.7019 93.1294 96.2191 93.5133C94.0117 95.2683 91.7775 96.9775 89.1729 98.1224Z" fill="#F9F9F9"></path><path d="M116.021 113.257C115.383 114.447 114.101 114.468 113.042 114.861C111.293 115.512 110.684 116.266 110.866 118.101C111.095 120.421 111.532 122.672 113.096 124.576C113.658 125.26 114.196 125.861 115.012 126.193C114.852 126.451 114.72 126.733 114.526 126.962C110.914 131.21 108.118 131.806 103.153 129.318C101.732 128.607 100.394 127.732 98.9936 126.977C98.6294 126.781 98.4359 126.572 98.3685 126.17C97.9953 123.939 97.6036 121.711 97.2181 119.483C99.137 120.598 100.92 121.99 103.181 122.41C103.892 123.248 104.587 124.1 105.323 124.915C105.558 125.175 105.924 125.462 106.28 125.177C106.623 124.904 106.49 124.491 106.285 124.17C105.456 122.875 104.597 121.601 103.774 120.302C102.677 118.569 101.906 116.705 101.658 114.653C101.473 113.12 101.57 113.056 103.056 113.28C105.425 113.635 107.8 113.908 110.201 113.976C112.188 114.032 114.109 113.729 116.021 113.257Z" fill="#D2D2D6"></path><path d="M43.7158 93.9951C44.8016 94.8365 45.8046 95.648 46.8462 96.4059C47.3373 96.7625 47.4326 97.133 47.1792 97.6587C46.527 99.0129 46.3871 100.488 46.2231 101.951C46.1727 102.402 46.136 102.73 45.6008 102.915C44.3432 103.352 43.1179 103.883 41.6913 104.451C41.4201 100.664 41.7145 97.2059 43.7158 93.9951Z" fill="#F0F0F1"></path><path d="M89.8333 99.7084C92.0016 98.5856 93.9694 97.2744 95.9427 95.7953C95.9427 96.7349 95.9896 97.5046 95.9325 98.2664C95.8343 99.5626 96.163 100.71 97.047 101.653C97.5223 102.161 97.5589 102.576 97.3583 103.272C96.768 105.322 97.1093 106.004 99.0092 107.342C99.4696 107.666 99.4696 107.666 98.9789 108.991C95.9135 105.891 94.2118 101.509 89.8333 99.7084Z" fill="#F9F9F9"></path><path d="M37.6449 82.9202C37.4998 83.0704 37.3548 83.2209 37.2098 83.3711C35.0442 80.3991 33.9032 76.9582 32.942 73.4893C31.4665 68.1657 31.2852 62.7301 32.1672 57.2702C32.203 57.0463 32.3701 56.8434 32.4766 56.6309C32.5912 56.7519 32.7059 56.8729 32.8206 56.9943C32.5546 59.2427 32.2216 61.4733 32.1944 63.7564C32.1175 70.2434 33.7613 76.2315 37.049 81.7958C37.2646 82.1608 37.447 82.545 37.6449 82.9202Z" fill="#E1E1E3"></path><path d="M47.6938 102.07C47.9216 100.57 48.0001 99.2473 48.7386 97.9121C50.3348 98.7618 51.8596 99.5736 53.5869 100.493C51.5703 101.033 49.7424 101.522 47.6938 102.07Z" fill="#F9F9F9"></path><path d="M53.6459 123.393C51.3419 121.644 48.9663 120.164 46.4282 118.955C46.6895 118.478 47.1593 118.494 47.5227 118.305C48.4445 117.825 49.0238 117.932 49.5996 118.903C50.2412 119.986 51.4026 120.535 52.5491 121.009C53.8863 121.562 53.8883 121.557 53.6459 123.393Z" fill="#E1E1E3"></path><path d="M50.2659 117.329C51.5246 116.78 52.666 116.283 53.844 115.769V119.874C52.2774 119.472 51.1636 118.707 50.2659 117.329Z" fill="#F9F9F9"></path><path d="M69.2462 88.3832C67.3182 88.3907 65.3903 88.3978 63.4623 88.4053C65.3887 87.9517 67.3163 87.8464 69.2462 88.3832Z" fill="#D2D2D6"></path><path d="M78.4484 89.501C77.4127 89.5113 76.3467 89.8506 75.3708 89.2149C76.4093 89.1775 77.4537 89.0706 78.4484 89.501Z" fill="#D2D2D6"></path><path d="M72.1431 88.7675C71.5918 88.8219 71.0266 88.9516 70.5679 88.4857C71.1196 88.429 71.6777 88.3395 72.1431 88.7675Z" fill="#D2D2D6"></path><path d="M74.0574 89.1181C73.5951 89.208 73.1415 89.2592 72.7841 88.8501C73.2361 88.8083 73.6913 88.75 74.0574 89.1181Z" fill="#D2D2D6"></path><path d="M93.1644 52.1779C93.4545 54.0873 91.1324 55.9519 89.2092 55.4052C86.1607 54.539 83.8438 52.7111 82.4112 49.872C81.8291 48.7196 81.7274 47.4431 82.6674 46.4074C83.5466 45.4383 84.6659 45.151 86.0208 45.4418C88.4824 45.9707 90.4498 47.235 92.0191 49.1409C92.7273 50.0012 93.2436 50.9916 93.1644 52.1779Z" fill="#FFFFFF"></path><path d="M112.799 108.637C112.283 107.577 112.551 106.589 112.63 105.652C112.9 102.47 113.187 99.292 113.091 96.0915C113.059 95.044 112.994 94.0094 112.766 92.9844C112.692 92.6533 112.843 92.3514 113.178 92.2624C113.563 92.1595 113.702 92.4775 113.787 92.7704C114.22 94.2617 114.271 95.8054 114.255 97.3333C114.22 100.771 113.933 104.195 113.442 107.6C113.388 107.971 113.376 108.342 112.799 108.637Z" fill="black"></path></g></g><circle cx="75" cy="75" r="74" stroke="#FF443D" stroke-width="2px" stroke-linecap="round" stroke-dasharray="78.5 39.25" stroke-dashoffset="45" fill="none"></circle><circle cx="75.0001" cy="75.0003" r="64.9388" stroke="#FF443D" stroke-width="2px" fill="none"></circle><defs><filter id="filter0_dd_2588_71204" x="3.06799" y="3.06836" width="143.864" height="143.864" filterUnits="userSpaceOnUse" color-interpolation-filters="sRGB"><feFlood flood-opacity="0" result="BackgroundImageFix"></feFlood><feColorMatrix in="SourceAlpha" type="matrix" values="0 0 0 0 0 0 0 0 0 0 0 0 0 0 0 0 0 0 127 0" result="hardAlpha"></feColorMatrix><feOffset></feOffset><feGaussianBlur stdDeviation="4"></feGaussianBlur><feComposite in2="hardAlpha" operator="out"></feComposite><feColorMatrix type="matrix" values="0 0 0 0 0.458824 0 0 0 0 0.490196 0 0 0 0 0.521569 0 0 0 0.5 0"></feColorMatrix><feBlend mode="normal" in2="BackgroundImageFix" result="effect1_dropShadow_2588_71204"></feBlend><feColorMatrix in="SourceAlpha" type="matrix" values="0 0 0 0 0 0 0 0 0 0 0 0 0 0 0 0 0 0 127 0" result="hardAlpha"></feColorMatrix><feOffset></feOffset><feGaussianBlur stdDeviation="2"></feGaussianBlur><feComposite in2="hardAlpha" operator="out"></feComposite><feColorMatrix type="matrix" values="0 0 0 0 0.458824 0 0 0 0 0.490196 0 0 0 0 0.521569 0 0 0 0.8 0"></feColorMatrix><feBlend mode="normal" in2="effect1_dropShadow_2588_71204" result="effect2_dropShadow_2588_71204"></feBlend><feBlend mode="normal" in="SourceGraphic" in2="effect2_dropShadow_2588_71204" result="shape"></feBlend></filter></defs></svg>