<svg xmlns:xlink="http://www.w3.org/1999/xlink" xmlns="http://www.w3.org/2000/svg" width="387" height="395" fill="none" viewBox="0 0 387 395"><g clip-path="url(#clip0_1017_25428)" fill="none"><path fill="#000" d="M241.28 391.028c-3.935 1.172-8.009 1.589-12.064 1.966-22.387 2.006-44.833 2.284-67.28 1.788-9.75-.219-19.48-.596-29.19-1.391-5.043-.417-10.086-.893-15.05-1.966-.455-.099-.89-.258-1.325-.397-.316-.338-.85-.04-1.167-.358l-.039-.02c-1.207-1.052-.752-1.747.494-2.244 1.127-.437 2.314-.616 3.461-.973 3.856-.894 7.792-1.192 11.727-1.529 16.415-1.391 32.869-1.708 49.343-1.669h1.839c.218-.476-.059-.635-.217-.814-6.23-6.991-9.177-15.134-8.682-24.529.257-4.826.811-9.612 1.523-14.379.277-1.827.534-3.655.89-5.482.178-.894 0-1.311-.93-1.549-3.441-.934-3.441-.973-3.342-4.528 0-.259-.02-.517-.04-.815-.949-.039-1.661.517-2.412.854-4.688 2.145-9.553 3.317-14.734 2.979-11.708-.754-21.913-9.791-24.286-21.509-1.404-6.912-.652-13.685 1.009-20.418a68.123 68.123 0 012.334-7.567c.276-.754.435-1.43.098-2.264-.534-1.311-.197-2.741-.257-4.131-.099-1.986-.217-2.165-2.215-1.708-3.658.834-7.376 1.35-11.114 1.708-4.133.377-8.267.596-12.42.536-2.195-.039-2.907-.635-3.322-2.86-.337-1.827-.594-3.654-.831-5.481-.099-.775-.336-1.152-1.206-1.073-2.097.199-4.213.258-6.309.457-1.8.179-3.421.894-4.905 1.946-1.404.993-2.788 2.006-4.271 2.86-2.413 1.41-5.004 1.947-7.773 1.132-2.511-.735-4.093-2.284-4.548-4.925-.218-1.251-.277-1.291-1.523-.993-2.314.536-4.648.834-7.04.754-3.442-.119-5.716-1.708-6.764-5.024-.494-1.57-1.187-3.119-.653-4.827.139-.457-.02-.735-.375-.993-1.939-1.35-2.393-3.396-2.532-5.561a19.18 19.18 0 01-.02-2.383c.06-2.066 1.306-3.377 3.006-4.449-1.186-1.589-1.898-3.238-1.859-5.164.06-3.297 1.701-5.343 4.905-5.998 2.096-.417 4.193-.258 6.309-.08 5.32.457 10.66.378 15.98.06 3.935-.238 7.89-.477 11.806-.914 1.78-.198 3.441-.655 5.122-1.291 3.144-1.171 6.388-2.085 9.552-3.177 5.102-1.768 10.165-3.575 15.248-5.383.475-.179 1.048-.198 1.404-.794-2.116-1.013-4.252-2.006-6.289-3.198-14.2-8.381-21.893-20.934-23.732-37.26-.158-1.37.06-2.919-.475-4.111-.573-1.271-2.353-1.192-3.54-1.847-6.684-3.674-11.074-9.037-12.34-16.723-1.226-7.508 3.046-14.241 10.343-16.247 1.127-.317 1.404-.695 1.365-1.827-.119-3.893-.08-7.805-.1-11.698-.019-2.304.278-1.887-1.819-2.562-1.621-.517-3.223-1.112-4.746-1.927-1.464-.794-1.998-2.006-1.879-3.595.139-1.787.475-3.535.95-5.263 4.845-17.656 13.546-33.069 26.836-45.68 7.159-6.793 15.426-11.897 24.681-15.333.376-.14.732-.298 1.088-.457.02-.278 1.048-.12.317-.735-7.397-.993-14.18-3.476-19.836-8.5-6.032-5.383-8.939-12.017-7.337-20.2 1.067-5.481 3.836-10.09 7.831-13.922 5.399-5.184 11.906-8.203 19.203-9.375 11.787-1.907 22.842.656 33.423 5.86 1.186.436 1.483-.756 2.155-1.232a11.706 11.706 0 001.701-1.59c3.461-2.72 7.456-4.428 11.589-5.779 8.959-2.9 18.135-3.773 27.49-2.979 6.724.576 13.27 1.907 19.539 4.489 3.481 1.43 6.744 3.277 9.592 5.8 8.128 7.209 9.829 18.113 4.311 27.507-3.58 6.097-9.097 9.573-15.703 11.52-5.161 1.529-10.481 1.867-15.841 1.767-2.353-.04-4.726-.218-7.218-.337-.06 1.628.316 3.217.494 4.826.06.576.495.715.969.814 12.44 2.8 22.803 9.414 31.999 17.994 13.626 12.731 23.613 27.965 30.238 45.423.534 1.41.89 2.9 1.365 4.35.474 1.509.02 2.701-1.147 3.714-1.207 1.052-2.611 1.767-4.015 2.502-3.955 2.046-3.955 2.046-4.074 6.574-.059 2.721.02 5.422.139 8.143.039.835.257 1.192 1.147 1.073 1.503-.179 3.045-.179 4.509.198 5.498 1.391 8.642 5.085 9.769 10.527 1.108 5.243-.257 9.95-3.381 14.201-1.583 2.145-3.54 3.912-5.716 5.442a37.842 37.842 0 01-9.493 4.806c-.929.318-1.186.695-1.246 1.609-.336 4.826-1.147 9.573-2.63 14.201-2.215 6.852-5.755 12.87-10.778 18.014-.277.278-.534.576-.791.874-.06.178-.139.377-.297.496l.059.179s.159-.08.178-.08c.337.04.673.06.97-.099 6.17-3.138 11.964-6.892 17.818-10.586.772-.477 1.286-1.092 1.661-1.887.732-1.549 1.444-3.118 2.196-4.647.494-1.013 1.068-1.986 1.898-2.741 2.195-2.026 4.964-1.649 6.546.894.277.437.495.913.772 1.41.435-.278.81-.536 1.206-.775 2.966-1.847 5.834-1.489 8.148 1.132 2.254 2.562 3.085 5.641 2.947 8.997a44.764 44.764 0 01-.376 3.953c-.237 1.887.217 3.317 2.096 4.21 1.859.894 3.382 2.284 4.648 3.933.85 1.112 1.503 2.324 1.879 3.674.87 3.118-.139 5.661-2.987 7.17-2.571 1.371-5.359 2.145-8.128 3.019-1.167.377-2.156.894-3.065 1.688-7.377 6.535-15.288 12.314-23.673 17.498-.217.139-.455.278-.672.417-1.543.874-2.69 1.847-1.978 3.992.593 1.827-.376 3.099-2.017 4.032-4.964 2.84-9.968 5.641-15.307 7.726-1.365.536-1.721 1.311-1.642 2.661.158 2.563-.099 5.145.495 7.707.158.655.257 1.251.652 1.807 2.413 3.456 2.255 6.932-.178 10.288-.633.854-.633 1.589-.375 2.542.85 3.099.652 6.157-.732 9.077-.356.735-.435 1.43-.356 2.264.277 3.039.039 6.078-.04 9.116-.217 8.342.119 16.664 1.365 24.926.356 2.423.85 4.807 1.483 7.17.178.636.376 1.271.475 1.927.316 1.886-.376 2.721-2.314 2.78-3.698.1-7.377-.139-11.035-.615-1.958-.259-3.896-.596-5.835-.934-.81-.139-1.206.04-1.325.934-.138 1.052.04 1.926.732 2.76 2.373 2.761 4.628 5.601 7.06 8.282 2.037 2.225 3.086 4.866 3.857 7.707.118.436.178.953.079 1.37-.494 2.105-.198 4.211-.198 6.316 0 2.88-.376 5.66-2.116 8.322 3.817.695 7.575.834 11.134 2.006.297.417.851.059 1.147.417l.02.02c1.068 1.35 1.048 1.39-1.147 2.264zM357.922 163.1c.277-2.463.495-4.687.772-6.912.336-2.82.909-5.601 1.938-8.282.455-1.172.989-2.304 1.76-3.317 1.048-1.39 2.334-2.462 4.193-1.986 1.779.457 2.393 1.986 2.709 3.575.336 1.688.395 3.416.217 5.144.693.179.97-.357 1.345-.655 1.365-1.053 2.789-1.986 4.391-2.622.87-.357 1.78-.516 2.709-.417 1.76.159 2.868 1.351 2.947 3.118.039.954-.257 1.828-.613 2.682-.238.595-.692 1.112-.732 1.767.969 0 1.879-.039 2.789 0 2.966.139 4.429 2.542 3.243 5.303-.653 1.49-1.721 2.662-2.986 3.635-2.453 1.906-4.925 3.754-7.397 5.64-.534.398-1.068.775-1.582 1.192-.929.735-2.195 1.311-2.67 2.264-.455.934.712 1.986.989 3.059.91 3.555.633 6.812-2.037 9.593-.494.516-.85 1.172-1.226 1.787-4.707 7.667-9.592 15.194-15.347 22.126-2.373 2.84-4.865 5.581-7.693 7.964-2.887 2.443-6.032 4.469-9.75 5.482a11.14 11.14 0 01-3.52.397c-3.54-.179-5.537-2.324-5.478-5.899.039-2.065.475-4.071.91-6.077 2.571-11.838 5.873-23.456 11.035-34.46 1.523-3.237 3.224-6.375 5.439-9.195 1.641-2.106 3.52-3.913 6.051-4.966 2.492-.993 4.925-.754 7.594.06z"></path><path fill="#000" d="M287.537 254.879c1.246-.993 2.729-1.529 4.114-2.304.652-.357.89-.655.791-1.509-.396-3.138 1.443-5.541 4.568-6.078.732-.119 1.365-.397 1.998-.735 3.006-1.628 5.972-.953 8.049 1.748 1.048 1.351 1.681 1.271 2.412-.298 1.108-2.443 3.521-3.277 5.914-2.085 1.819.914 3.322 3.555 1.918 5.879-.732 1.192-.574 1.47.87 1.748.791.139 1.543.317 2.235.734 1.345.835 1.898 2.066 1.305 3.536-.336.834-.217 1.311.376 1.887 4.469 4.429 8.009 9.632 12.024 14.439.494.596.692 1.271.554 2.026-.87 4.667-1.404 9.414-2.749 13.982-.712 2.403-2.077 3.337-4.549 3.178-4.41-.259-8.761-1.033-13.112-1.748a501.103 501.103 0 01-22.288-4.211c-4.351-.913-5.261-1.032-5.913-6.673-.554-4.727-.455-9.494-.514-14.26-.277-1.848-.139-3.695-.099-5.542-.02-1.589 1.265-2.542 2.096-3.714zM42.585 152.475c-1.503 0-3.046.079-4.53-.259-.75-.178-1.205-.059-1.522.735-.81 2.006-2.531 2.662-4.49 2.503-1.027-.08-1.403.278-1.76 1.112-1.384 3.217-2.946 6.356-4.785 9.335-.416.675-.416 1.271-.238 2.045.396 1.689.337 3.417-.079 5.105-.731 2.999-2.55 4.925-5.596 5.422-2.927.477-5.459-.556-7.021-3.039-.91-1.47-1.82-1.708-3.323-1.47-1.641.259-3.283 0-4.805-.734-3.085-1.49-4.668-4.608-3.936-7.846.771-3.316 3.857-5.958 7.199-5.481 2.729.397 4.212-.755 5.518-2.781 1.74-2.721 3.48-5.442 5.26-8.143.336-.497.376-.953.297-1.49-.317-2.204.099-4.23 1.602-5.918.534-.596.415-1.132.217-1.808-3.223-10.387 1.365-26.594 18.175-29.017 16.691-2.403 26.777 9.454 29.23 20.398 1.107 4.925-.02 9.315-3.382 13.088-4.153 4.648-9.414 7.091-15.525 7.825-2.155.219-4.33.457-6.506.418zM131.104 353.212c-.336 7.508-4.034 12.95-10.382 16.704a20.282 20.282 0 01-3.956 1.787c-.652.219-1.028.616-1.325 1.291-1.226 2.82-4.232 3.933-6.882 2.443-1.088-.616-2.195-.794-3.362-.973-5.815-.894-11.194-2.9-16.079-6.177-2.709-1.827-5.062-4.012-6.822-6.792-3.165-5.045-3.719-10.348-1.662-15.929 1.068-2.88 2.73-5.422 4.549-7.845 1.345-1.788 2.67-3.615 4.034-5.383.97-1.251 1.049-2.463.119-3.793a11.695 11.695 0 01-1.602-3.178c-.356-1.112-.138-2.085.554-2.979 1.384-1.748 4.291-2.463 6.25-1.41.711.377 1.127.556 1.858-.04 1.029-.854 2.334-.874 3.58-.497.771.239 1.404.298 2.235.06 2.946-.874 5.517.894 5.359 3.932-.119 2.384.85 3.258 2.828 4.092 5.913 2.463 11.134 5.998 15.228 11.003 2.986 3.654 5.102 7.686 5.399 12.513.099.377.079.774.079 1.171zM9.26 232.635c1.425.457 1.998 1.648 2.433 2.92.396 1.191.712 2.403.97 3.634.157.715.454 1.172 1.186 1.371 5.063 1.35 8.207 4.766 10.046 9.533 1.088 2.84 2.077 5.7 3.145 8.54 1.147 3.039 2.472 5.978 4.41 8.6 4.311 5.839 10.047 8.759 17.324 8.421 2.69-.119 5.38-.456 8.03.318.494.139 1.028.238 1.542.338 9.493 2.125 9.869 12.612 6.31 17.458-1.682 2.304-4.016 3.972-6.666 5.144-5.102 2.264-10.481 3.138-15.999 2.741-10.323-.735-19.618-4.231-27.608-10.944-13.191-11.142-17.127-28.024-12.657-43.258.415-1.449.93-2.879 1.898-4.091.97-1.073 1.86-2.205 3.224-3.118-1.622-.834-2.156-2.284-2.531-3.833-.712-2.999.593-4.469 3.737-4.211h.02c.297.477.87.099 1.187.437zM284.946 309.239c1.306-.278 2.631-.656 3.995-.834 11.075-1.569 22.625 5.759 21.735 20.755-.356 5.879-2.472 11.082-6.724 15.233-2.354 2.284-5.261 3.198-8.524 2.602-.732-.139-1.305-.238-2.017.179-4.648 2.621-9.513 2.86-14.477 1.033-5.814-2.145-10.165-6.038-12.854-11.639-2.334-4.886-2.018-9.752.692-14.419 1.542-2.662 3.56-4.926 6.111-6.654.751-.516 1.246-.854.791-1.986-.574-1.45.217-2.741 1.898-3.059 1.325-.238 1.82-.913 2.196-2.065a5.695 5.695 0 012.274-2.92c2.155-1.39 4.489-.218 4.726 2.364.04.437-.178.913.178 1.41z"></path><path fill="#110F0F" d="M8.094 232.198c-.514.079-1.088.06-1.543.258-1.483.656-2.333 1.45-2.017 3.198.297 1.589.475 3.336 2.492 3.873.376.099.751.397.771.834.02.496-.435.616-.83.616-.752 0-1.148.556-1.642.993-.534.476-.91 1.152-1.641 1.39.098-.238.138-.556.316-.695 1.582-1.192 1.325-2.642.672-4.191-.316-.794-.514-1.629-.712-2.463-.81-3.178.93-4.747 4.134-3.813z"></path><path fill="#3A3939" d="M119.119 387.453c-.85.754-2.017.695-3.006 1.112-1.384.596-1.404.556-.949 2.105-.257-.04-.534-.02-.751-.119-.455-.218-1.088-.397-1.108-1.013-.02-.755.692-.913 1.226-1.092 1.503-.497 2.987-1.073 4.588-.993z"></path><path fill="#322929" d="M287.537 254.879c0 .139.04.318-.039.377-1.978 2.006-2.037 4.529-1.859 7.111.039.576.079 1.171-.139 1.747-.376-1.926-.296-3.892-.257-5.839.02-1.569 1.108-2.542 2.294-3.396z"></path><path fill="#161010" d="M174.435 9.017c-.416 1.211-1.622 1.807-2.255 2.88-.336.575-1.087.675-1.621-.06 1.424-.735 2.333-2.225 3.876-2.82z"></path><path fill="#5D5D5D" d="M241.28 391.028c.198-.159.356-.377.574-.457 1.068-.357 1.147-1.032.633-1.906.415-.139.731.079 1.048.298.573.397.534.854.02 1.231-.673.497-1.385.953-2.275.834z"></path><path fill="#BCD0D0" d="M137.274 58.015c.317-.119.633-.1 1.128.1-.455.436-.87.675-1.444.635.119-.258.218-.496.316-.735z"></path><path fill="#C4BFBF" d="M246.501 216.825c-.296.457-.81.318-1.226.437-.375.06-.514-.099-.415-.477.237-.159.494-.318.732-.476.158.437.593.397.909.516z"></path><path fill="#110F0F" d="M9.26 232.634c-.454.04-.929.12-1.166-.437.474-.039.89 0 1.167.437z"></path><path fill="#3A3939" d="M115.204 390.67c.475-.159.87-.059 1.167.358-.455.099-.87.059-1.167-.358z"></path><path fill="#5D5D5D" d="M242.466 388.665c-.494.158-.87.019-1.147-.417.455-.08.871-.06 1.147.417z"></path><path fill="#FDDBC4" d="M243.238 130.548a6.826 6.826 0 011.068 2.066c.218 1.112.85 2.065 1.088 3.158.118.258.217.496.277.774.118.259.296.517.375.795 2.631 7.249 4.015 14.777 5.202 22.344.712 4.568 1.483 9.136 1.226 13.783-.752 13.407-4.035 26.019-12.835 36.525-5.795 6.912-12.835 12.294-21.418 15.373-.356.099-.732.178-1.088.298a15.06 15.06 0 01-.514.178c-.336.1-.673.219-1.009.358a5.769 5.769 0 01-.534.198c-4.272 1.45-8.642 2.483-12.993 3.695-.257.079.099.317-.04.099-.039-.06.02-.079.139-.139.573-.219 1.147-.298 1.621.238-2.926.834-5.972.894-8.978 1.073-5.063.298-10.126.377-15.208.576-9.908.377-19.718-.656-29.487-2.225a89.498 89.498 0 01-12.657-3.019c-.317-.099-.594-.258-.89-.397-13.508-6.633-22.091-17.577-26.6-31.698-5.992-18.71-3.718-36.664 5.834-53.765.317-.576.732-1.092 1.068-1.668 1.8-3.019 4.114-4.608 7.852-3.674 1.819.456 3.797.059 5.715.119 1.681.04 2.907-.656 3.738-2.125.158-.298.395-.556.494-.854.91-3.099 3.145-3.754 6.012-3.377 5.834.755 11.708.298 17.562.378 1.74.019 3.144.357 4.39 1.728 1.582 1.727 3.857 1.648 5.933 1.39 2.571-.318 5.122-.199 7.693-.318 9.869-.516 19.757-.119 29.606-.457 11.174-.377 22.348-.834 33.442-2.224 1.147-.139 2.334-.497 3.481.079l.04.08c.237.159.197.456.395.635z"></path><path fill="#252323" d="M259.079 148.482c-1.048.755-2.294 1.192-3.184 2.165-.613-.318-.653-.874-.811-1.35-2.076-6.416-4.489-12.672-7.634-18.63-.889-1.688-.889-3.714-2.076-5.224.633-.556 1.187-.337 1.681-.377 1.602-.179 2.373-1.112 2.077-2.681-.436-2.324-.989-4.628-1.761-6.872a96.304 96.304 0 00-3.658-9.176c-.158-.358-.277-.735-.554-1.033-.356-.358-.752-.536-1.246-.437-.593.119-.593.616-.613 1.073-.02.198-.059.397-.079.595-.811-.158-.633-1.013-1.029-1.469-.079-.378-.257-.735-.395-1.073 0 .238.138.397.198.576.118.477.395.894.494 1.371.811 3.654 1.345 7.348 1.82 11.062.118.954.197 1.927-.91 2.344-3.184 1.172-6.21 2.8-9.612 3.317-.791.02-1.582.099-2.333.397-1.187 0-2.373.04-3.54 0-3.619-.08-7.179.616-10.798.417-1.76-.099-1.919-.099-2.215-1.787-.514-3.059-1.523-5.979-2.393-8.938-.949-3.218-1.879-6.435-3.125-9.573-.297-.735-.534-1.51-1.028-2.105-.277-.358-.712-.636-1.207-.437-.395.159-.534.556-.553.973-.02.397-.02.794-.02 1.191-.317.179-.495 0-.633-.238.217.179-.257.02-.079-.159.198-.178-.059-.357-.059-.099.019.397.296.715.415 1.092 1.186 5.442 1.562 10.964 1.701 16.525.019.655.039 1.331 0 1.986-.139 1.609.237 2.761 2.155 2.721.317 0 .613.199.831.477-.949.655-2.057.456-3.065.377-4.074-.298-8.129.338-12.183.497-2.67.099-5.379.039-8.049.317-5.241.517-10.501.298-15.762.378-.455 0-.929-.02-1.384 0-.91.039-1.167-.517-1.029-1.271.712-3.933.198-7.905.356-11.858.099-2.562-.217-5.144.336-7.686.159-.735.258-1.589-.276-2.304-.277-.377-.613-.715-1.147-.635-.534.079-.811.437-.851.953-.079 1.112-.455 2.185-.435 3.317.04 4.091.02 8.202 0 12.294-.02 1.827-.178 1.907-1.839 2.046-9.315.754-18.669.178-27.984.377-.316 0-.653-.02-1.167-.06.673-2.701 1.365-5.283 1.958-7.885 1.147-5.064 2.215-10.129 3.323-15.213.059-.318.059-.656.039-.993 0-.675-.297-1.152-1.009-1.232-.672-.08-1.166.199-1.305.914-.178.775-.316 1.55-.474 2.324-.436.735-.574 1.569-.91 2.323-2.808 7.488-5.933 14.837-8.939 22.265-1.068 2.661-2.69 3.952-5.538 3.674-2.986-.159-5.992-.099-8.978-.357-.534.059-1.108-.119-1.622.159-2.373-.457-4.766-.894-7.199-.755-.395.02-.81 0-1.166.119-.831.258-.969 1.152-.277 1.688.534.417 1.147.596 1.839.596.791 0 1.602-.059 2.353.099.693.139 1.404.278 2.077.378.079.754-.317 1.231-.593 1.748a109.956 109.956 0 00-6.23 15.174c-.099.317-.237.615-.336.933-.178.675-.574.854-1.167.556-1.187-.596-2.353-1.172-3.678-1.41-.455-.079-.673-.338-.752-.775-.158-.834-.396-1.648-.376-2.542.04-3.575 0-7.15 0-10.705 0-.596.02-1.172.158-1.768.337-1.529-.296-2.423-1.859-2.88-1.7-.496-3.401-.993-5.082-1.549-1.523-.516-1.74-.913-1.424-2.482.95-4.529 2.314-8.918 3.975-13.228 2.61-6.733 6.052-13.029 10.047-19.027 3.737-5.62 8.009-10.805 13.013-15.313 6.348-5.84 13.527-10.407 21.576-13.526 1.325-.516 2.591-1.27 4.153-1.31.079 1.191.217 2.323-.079 3.396-.435 1.629.316 2.661 1.483 3.535 3.817 2.86 8.227 4.37 12.796 5.442 3.876.914 7.811 1.51 11.846 1.708 2.353.12 4.707.397 7.06.278 3.125-.159 6.269-.417 9.394-.695 4.133-.357 8.168-1.132 12.182-2.065 3.778-.874 7.377-2.364 11.036-3.635.791-.278 1.503-.794 2.215-1.271.87-.576 1.424-1.33 1.325-2.463-.159-1.768.197-3.535-.297-5.323-.237-.894.455-.953 1.088-.457-.198.398.118.457.375.537.653.298 1.306.536 1.978.754.534.2 1.048.457 1.582.676.139.06.277.139.396.218.178.1.376.219.554.318.118.06.237.12.355.199.178.099.337.178.515.258.118.04.237.1.336.178.158.08.336.18.514.239.119.04.237.1.336.179l.356.178c.119.06.238.12.336.199.119.08.218.159.317.238.059.04.099.08.158.12.178.119.376.218.574.297.138.06.277.14.435.219.237.119.474.238.692.357 13.725 8.6 24.206 20.239 32.256 34.221 4.469 7.766 7.851 16.008 10.442 24.569.395 1.291.454 2.502-.91 3.058-3.896 1.569-4.114 4.767-3.659 8.183.514 3.933.218 7.925.791 11.857.079.378 0 .795.277 1.132z"></path><path fill="#EB4533" d="M223.54 47.29c-2.215.576-4.489.377-6.744.357-3.085-.437-6.229-.417-9.295-1.152-4.588-1.092-8.721-3.297-12.934-5.263-5.616-2.642-11.371-4.747-17.581-5.541-2.551-.318-5.122-.12-7.654-.219-.89-.02-1.799.06-1.78 1.252.02 1.191.93 1.23 1.82 1.23 1.008.1 2.511-.138 2.61 1.113.099 1.112-1.404 1.132-2.294 1.37-7.139 1.907-14.397 3.099-21.794 2.96-6.822-.14-13.448-1.33-19.737-4.151-4.647-2.105-7.91-5.442-9.117-10.487-1.028-4.33-.296-8.361 2.789-11.778 3.659-3.396 8.049-5.382 12.815-6.633 7.693-2.026 15.347-1.41 22.961.576 2.808.735 5.517 1.688 8.207 2.76 3.837 1.53 7.772 2.781 11.767 3.854.593.377 1.345-.2 1.918.357.89.636 1.978.715 3.007.894.514.1 1.127.238 1.384-.397.257-.616-.237-.994-.692-1.271-1.444-.874-2.65-1.967-3.481-3.436-.574-1.014-1.266-2.066-.494-3.317 1.285-1.073 2.847-1.629 4.35-2.245 5.894-2.423 12.025-3.753 18.373-4.17.534-.219 1.068-.18 1.622-.16 1.048.318 2.135.14 3.203.18h1.266c9.691.814 18.867 3.217 26.797 9.136 2.037 1.509 3.995 3.217 5.162 5.6.336 1.053-.138 2.423 1.187 3.099.138.119.257.258.356.417.217.318.415.635.613.953 2.413 6.078.732 11.222-3.56 15.75-2.017 2.125-4.371 3.794-6.882 5.243-.139.1-.297.18-.455.259a4.56 4.56 0 01-.435.218c-.198.1-.416.179-.613.278-.119.06-.257.12-.376.179-.178.08-.356.159-.534.258-.119.08-.218.12-.356.179-.178.08-.356.159-.534.258-.119.08-.237.14-.356.199-.198.08-.376.178-.573.298-.139.06-.277.119-.436.159-.573-.02-1.048.397-1.601.436-.594.318-1.345-.119-1.899.398z"></path><path fill="#EB4634" d="M228.465 343.838c-5.122-2.284-9.987-5.025-14.911-7.667-3.006-1.628-5.973-3.336-8.959-5.005-.396-.218-.791-.417-1.029-.973.515-.318 1.049-.199 1.523-.218 3.085-.1 6.17-.338 9.236-.775 1.661-.238 3.184-.854 4.687-1.49 1.859-.794 2.808-2.323 2.907-4.349.059-1.192.02-2.384.257-3.555.139-.735.059-1.53-.336-2.126-.771-1.151-.85-2.462-1.108-3.753-.375-1.986-1.186-3.794-2.472-5.323-1.305-1.549-2.61-3.118-4.331-4.27-1.028-.695-1.898-1.649-2.927-2.344-1.028-.715-1.206-1.509-.87-2.681 1.207-4.092 1.721-8.262 1.503-12.533-.237-4.607-1.206-9.036-3.243-13.187-2.373-4.787-5.894-8.382-10.877-10.447-.356-.139-.772-.199-1.029-.656 2.453-.556 4.905-1.053 7.318-1.628 2.571-.616 5.043-1.47 7.495-2.483 3.243-1.331 4.806-3.694 4.746-7.23-.079-4.409-1.087-8.639-2.215-12.85-.395-1.47-.81-2.919-1.246-4.389-.217-.735-.178-1.291.732-1.47 1.424-.258 2.769-.854 4.213-.973.85.218.988.993 1.226 1.668 3.223 8.62 5.517 17.518 7.634 26.475 1.463 6.177 3.025 12.334 3.599 18.69.138 1.509.949 2.482 2.254 3.257 4.727 2.741 4.885 8.103.396 11.261a7.901 7.901 0 01-.672.437c-1.919 1.192-1.919 1.192 0 2.463 2.571 1.708 3.085 4.628 1.463 8.123-.257.536-.692.973-.89 1.549-.158.417-.573.517-.89.735-.751.517-1.266 1.152-1.088 2.145.178 1.013.93 1.351 1.82 1.53.91 2.979.494 6.017.277 8.997-.198 2.899-.158 5.779 0 8.679.257 5.204.514 10.407 1.186 15.571.139 1.112-.197 1.986-1.562 1.966-.653-.158-1.285-.397-1.958-.556-.593-.337-1.246-.417-1.859-.615z"></path><path fill="#EBA98D" d="M242.803 129.832c-1.622.676-3.382.497-5.043.676-2.018.218-4.055.357-6.072.615-2.353.278-4.726.02-7.04.616-.198.04-.396.06-.594.06-3.619-.199-7.218.337-10.817.476-9.81.398-19.599.139-29.408.457-4.213.139-8.405.179-12.618.298-1.443.04-2.848.497-4.311.377-2.136-.158-4.232-.238-5.439-2.482-.454-.815-1.325-.715-2.116-.715-4.746 0-9.492-.02-14.219 0-2.294 0-4.568-.497-6.882-.437-1.167.04-1.8.417-2.235 1.45-.475 1.092-1.048 2.125-1.681 3.138-.771 1.251-1.78 1.867-3.243 1.807-2.829-.139-5.657.278-8.465-.357-1.72-.398-2.887.476-3.876 1.747-2.413 3.099-4.292 6.495-5.854 10.07-2.294 5.204-3.797 10.685-4.687 16.286-.712 4.489-1.167 9.037-.87 13.585.633 10.01 3.105 19.524 8.148 28.243 3.718 6.415 8.642 11.758 14.634 16.127 1.82 1.311 3.679 2.543 5.637 3.615.356.199.672.417.85.794-1.028.02-1.898-.476-2.828-.814-5.735-2.065-11.154-4.707-16.078-8.342-9.098-6.673-14.516-15.67-16.711-26.693-1.939-9.613-1.365-19.206.533-28.759 2.077-10.368 5.597-20.219 10.304-29.673 1.028-2.065.831-1.728 2.808-1.529 4.509.437 9.038.894 13.587.973 1.879.04 2.986-.675 3.579-2.383.376-1.053.811-2.086 1.187-3.138.554-1.53.554-1.549 2.235-1.609 1.384-.04 2.769-.06 4.153-.079 4.944 0 9.868 0 14.813-.02 3.54-.02 7.099.079 10.679-.338.356 1.073.099 2.046.079 3.019-.039 1.887.356 2.383 2.274 2.344 6.388-.12 12.776-.199 19.144-.457 6.052-.239 12.103-.636 18.135-.993 2.176-.119 4.331-.318 6.507-.457.534-.04 1.186-.02 1.483-.437.831-1.212 2.017-1.013 3.184-1.053 7.693-.218 15.406-.417 23.099-.695 1.147-.04 1.879.219 2.334 1.271.514 1.212 1.325 2.205 1.701 3.416z"></path><path fill="#FFFFFF" d="M136.583 279.05c-.258-5.958-1.266-11.777-2.769-17.537-.099-.377-.158-.775-.455-1.073-.356-.456-.949-.655-1.266-1.171-.158-.219-.277-.457-.415-.676-.376-.615-.672-1.39-1.562-1.311-.95.08-1.227.894-1.484 1.649-.909 2.82-1.878 5.601-3.896 7.905-3.48 3.952-8.128 5.104-13.032 5.601-1.108.119-2.235-.02-3.343.139-.632.099-1.186.019-1.503-.636-.514-3.059-1.068-6.117-1.522-9.176-1.029-6.792-2.018-13.585-3.026-20.377-.495-3.337-.495-3.317 2.63-4.31 8.227-2.562 16.316-5.462 24.404-8.421.673-.239 1.345-.497 1.998-1.013.534.516.732 1.152.949 1.747 4.806 12.175 8.682 24.628 10.759 37.598.375 2.343.593 4.707.534 7.11-.02.854-.317 1.271-.95 1.748-1.542 1.112-3.026 2.324-4.529 3.495-.158.08-.296.239-.474.298-1.701.437-.455-1.211-1.048-1.589z"></path><path fill="#EB4533" d="M177.204 41.192c1.246-1.191 2.452-.973 3.876-.159 6.17 3.575 12.637 6.515 19.46 8.64.534.496.534 1.172.653 1.827.633 3.396.138 6.852.692 10.249.237 1.49-.633 2.443-1.938 3.118-4.509 2.363-9.275 4.032-14.18 5.323-.474.099-.969.159-1.424.278-.178.06-.356.099-.534.139-.435.099-.89.178-1.305.317-.178.06-.356.12-.534.16-1.325.218-2.571.774-3.935.754-.712.02-1.405.358-2.136.08-5.597.158-11.154-.14-16.593-1.57-2.69-.715-5.122-1.946-7.278-3.793-2.749-2.344-2.67-5.6-2.946-8.72-.178-1.906-.06-3.832-.02-5.739.039-2.324.514-2.92 2.788-3.297 2.591-.417 5.202-.655 7.773-1.172a58.172 58.172 0 0017.581-6.435z"></path><path fill="#FFFFFF" d="M208.866 234.641c1.701 5.084 3.065 10.248 3.481 15.611.217 2.899-.317 3.734-2.987 4.846-4.707 1.946-9.651 3.039-14.694 3.734-9.374 1.311-18.768 1.211-28.181.357-1.958-.179-3.916-.516-5.795-1.112-2.175-.675-3.856-1.966-5.003-3.933-.436-.734-.89-1.469-1.207-2.264-2.452-6.196-4.865-12.393-7.297-18.61.83-.437 1.503.02 2.175.139 3.639.616 7.278 1.172 10.956 1.43.752.06 1.662-.079 1.938.974 5.716 7.527 13.112 11.718 22.684 11.817 3.501.04 6.922-.099 10.284-1.331 4.667-1.688 8.188-4.627 10.581-8.957.474-.874.949-1.728 1.542-2.522.396-.517.89-1.073 1.523-.179z"></path><path fill="#FDDBC4" d="M201.054 269.874c2.215 1.808 3.679 4.131 4.608 6.813 1.444 7.15-.435 13.922-2.432 20.675-.238.814-.356 1.669-.554 2.503-.396 1.648-.791 1.827-2.472 1.112.099-.675.494-1.371-.712-1.549-1.661-.239-3.244-.874-5.023-1.311-.04.556 1.206.874.316 1.47-5.063-.417-9.869.973-14.714 2.125-.771.457-1.661.337-2.492.536-2.709.655-5.161 1.788-7.416 3.655.336-5.82.93-11.54 1.879-17.22-.831-1.708.059-3.118.732-4.568.81-1.093.81-2.523 1.404-3.694 5.142-10.547 15.386-13.129 25.017-11.321.692.159 1.187.655 1.859.774zM293.55 227.967c-.752.795-1.78 1.113-2.749 1.45-1.879.636-3.698 1.371-5.577 1.967-1.562.496-2.848 1.271-4.054 2.323-1.642 1.43-3.224 2.92-5.043 4.112-2.472 1.747-5.261 2.84-8.129 3.714-1.779.556-3.46.496-4.963-.755a2.686 2.686 0 01-.376-.457 6.34 6.34 0 01-.277-.496c-.198-.855-.791-1.411-1.444-1.947-1.997-3.575-3.026-7.547-4.548-11.321-.89-2.185-1.681-4.429-2.492-6.653-.297-.834-.851-1.669-.376-2.642 4.054-2.522 8.069-5.124 12.182-7.547 1.8-1.053 3.026-2.423 3.857-4.29.395-.894.652-1.847 1.305-2.602 1.088-.953 1.681-.417 2.195.655 1.919 3.933 2.116 3.953 5.122.735.356-.377.732-.774 1.147-1.092 1.444-1.073 2.591-.794 3.264.914 1.265 3.158 1.344 6.435.988 9.771-.059.596-.158 1.172-.237 1.768-.237 2.085.534 3.555 2.452 4.489 1.662.794 3.343 1.588 4.925 2.522 1.997 1.212 3.243 2.86 2.828 5.382z"></path><path fill="#FFFFFF" d="M139.688 283.877c1.859-1.887 4.034-3.377 6.249-4.807 5.814-3.774 11.965-6.892 18.392-9.394.376.318.139.596.02.894-2.591 5.978-3.935 12.294-4.924 18.709-.079.576-.238 1.152-.356 1.748-.811 4.329-1.305 8.719-2.314 12.989-.712 2.959-1.424 5.899-3.283 8.421-1.206 1.629-2.709 2.661-4.667 3.059-2.215.437-4.45.556-6.645-.02-5.004-1.311-8.03-4.827-8.445-10.229-.475-6.375 1.088-12.393 3.876-18.093.119-.159.238-.318.376-.477.059-.079.139-.139.198-.218.692-.557.692-1.49 1.127-2.185.139-.139.277-.258.396-.397z"></path><path fill="#FDDBC4" d="M90.325 241.413c.277-.04.534-.08.811-.119 2.65-.219 3.066-.02 2.888 2.522-.277 4.29-.198 8.58-.614 12.85-.296 2.96-.059 5.939-.138 8.918-.02.973.099 2.006-.653 2.82-2.175.914-4.153 2.205-6.031 3.615-1.147.874-2.374 1.609-3.778 2.046-.91.278-1.8.337-2.71.159-1.74-.358-2.353-.993-2.491-2.781-.138-1.768-.178-3.535-.237-5.323-.04-.993-.02-1.966-.514-2.88-1.405-1.787-1.01-3.714-.436-5.64.258-.894 1.167-1.986-.118-2.602-1.246-.596-1.78.675-2.433 1.47-1.107 1.39-1.265 2.979-1.246 4.667.02 2.801-.79 4.032-3.46 4.787-2.275.655-4.628 1.886-6.962.059-.119-.218-.277-.437-.356-.695-.494-1.648-.297-2.046 1.424-2.403 1.008-.199 2.017-.516 3.085-.457.653.04 1.305-.059 1.86-.457-.12-1.708-1.365-2.204-2.71-2.522-.692-.179-1.444-.04-2.156-.139-3.382-.477-4.885-4.35-2.808-7.19 1.206-.874 2.492-1.35 4.014-.854.594.179 1.286.099 1.939.099.474 0 .672-.337.77-.734-.375-1.907-1.364-2.821-3.46-2.88-2.334-.08-3.5-1.49-4.054-4.032.158-.795.474-1.45 1.246-1.788 4.034.298 8.128.894 12.123.695 5.755-.317 11.569.457 17.205-1.211z"></path><path fill="#FFFFFF" d="M225.479 228.702c3.599-1.589 7.119-3.317 10.897-4.469 2.432-.755 4.825-1.668 7.238-2.542 1.918-.695 1.879-.695 2.472 1.172 1.78 5.6 3.085 11.301 4.232 17.06.989 4.966 1.879 9.971 2.789 14.956.079.377.059.774.099 1.172-.218.655-.811.834-1.345 1.052-2.986 1.212-6.072 2.185-9.177 3.059-1.76.496-2.551-.636-3.203-1.927-.811-1.648-1.246-3.495-2.294-5.044-.218-.338-.416-.696-.633-1.013-3.066-7.567-6.823-14.777-10.858-21.868-.277-.476-.712-.993-.217-1.608z"></path><path fill="#CF200D" d="M168.957 34.936c6.427-.337 12.657.537 18.729 2.761 3.896 1.43 7.633 3.198 11.332 5.025 5.3 2.622 10.877 4.131 16.75 4.528.396.02.791.06 1.068.417-7.614.318-14.911-1.092-21.972-3.912-2.452-.974-4.884-2.026-7.139-3.357-4.311-2.542-11.747-3.714-16.81-3.396.534.576 1.167.576 1.721.794.534.219 1.166.18 1.641.596-3.975 3.794-19.658 9.236-35.183 7.349.653.695 1.306.874 1.919 1.053.633.198.83.575.751 1.171-.198 1.768-.395 3.536-.593 5.323-.099.914-.653 1.132-1.503 1.152-2.255.06-4.47-.298-6.625-.874-3.698-.993-7.258-2.304-10.343-4.687-1.503-1.649-3.422-2.84-4.826-4.608-1.681-2.105-2.828-4.528-3.935-6.951-1.029-3.138-.653-6.257.336-9.315 1.424-4.45 3.896-8.183 7.614-11.043-1.622 2.76-2.828 5.74-2.65 8.957.257 4.31 1.958 8.004 5.557 10.646 3.698 2.701 7.95 4.032 12.321 5.025a52.128 52.128 0 0012.281 1.27c5.122-.078 10.185-.734 15.188-1.747 2.433-.496 4.846-1.013 7.278-1.827-1.048-.755-1.048-.755-2.887-.775-.771-.317-1.523-.615-1.562-1.688-.08-1.152.672-1.549 1.542-1.887z"></path><path fill="#E1E1E1" d="M138.125 287.055c-2.729 5.461-4.311 11.181-3.935 17.338.198 3.178 1.206 6.038 3.579 8.322 1.503 1.45 3.402 2.105 5.32 2.403 2.116.338 4.331.318 6.447-.337 2.789-.874 4.134-3.138 5.162-5.621.949-2.324 1.483-4.787 1.978-7.229.692-3.476 1.364-6.972 2.076-10.447.04-.179.218-.318.337-.457-.178 2.701-.396 5.382-.534 8.083-.337 6.415.019 12.791 1.325 19.087.81 3.972 2.215 7.706 4.766 10.924.118.139.237.278.376.397l.019.02c.119.139.238.278.376.397l.02.02c.099.119.099.258-.02.377l-.02.02c-.198.238-.553.159-.771.357-13.666 5.363-28.716-3.038-31.287-17.458-1.186-6.653-.336-13.148 1.365-19.583a68.653 68.653 0 012.116-6.574c.336-.894.752-1.688 1.661-2.085.554.536.376 1.112.04 1.668-.158.099-.277.238-.396.378z"></path><path fill="#EBA98D" d="M173.229 284.274c-.673 1.41-1.207 2.84-1.187 4.429-1.444-1.252-2.215-1.033-2.61.893-.673 3.377-1.009 6.793-1.266 10.209-.376 5.005-.672 10.01-.771 15.035-.02.655.059 1.331-.693 1.708-.87.437-1.72 1.053-2.748.953-.574-.039-.574-.635-.693-1.072-.573-2.522-.85-5.085-.988-7.647-.594-10.645.454-21.112 3.421-31.361.89-3.058 2.254-5.918 3.362-8.877.217-.576.653-.795 1.167-.934 6.803-1.966 13.665-3.456 20.805-2.423 3.777.536 7.258 1.768 9.967 4.667-2.788-.298-5.557-.854-8.385-.715-7.832.378-13.804 3.754-17.601 10.745-.159.278-.376.537-.554.795-1.721-.497-2.63.397-2.235 2.165.178.635.692.953 1.009 1.43z"></path><path fill="#FFFFFF" d="M245.275 136.566c-.02-.259-.04-.537-.04-.795-.138-.397.04-.457.376-.377.118.059.138.139.099.258 0 .218.158.377.277.536.118.06.138.159.098.278.02.219.178.338.258.517 3.203 6.752 5.537 13.823 7.317 21.092 2.195 8.978 3.184 18.074 2.235 27.329-1.701 16.763-9.908 29.037-24.939 36.684-6.032 3.059-12.34 5.204-18.867 6.792-.514.12-1.028.159-1.542.239-.396.258-.89.04-1.286.318-.217.039-.435.059-.652.099-.475.179-.653-.099-.475-.437.356-.695 1.068-.934 1.76-1.152 1.919-.616 3.837-1.251 5.696-2.026.316-.357.87-.02 1.186-.397.218-.219.574-.139.792-.377 5.062-1.689 9.492-4.489 13.665-7.726 7.772-6.038 13.389-13.665 16.672-23.02 1.681-4.806 2.927-9.712 3.56-14.737.534-4.17.652-8.341.197-12.592-.83-7.865-2.294-15.591-4.113-23.257-.554-2.304-1.286-4.548-1.918-6.832-.139-.159-.258-.278-.356-.417zM217.429 64.39c-.118.04-.197-.02-.257-.119a1.333 1.333 0 00-.455-.278c-.138-.357-.534-.258-.751-.417-.158-.298-.534-.218-.771-.417h-.02c-.178-.278-.554-.198-.771-.397l-.02-.02c.138-.913.692-.596 1.206-.417h.04c.237.278.593.199.87.357.119-.06.217-.02.297.1.217.198.553.119.771.338l.039.02c.198.258.554.178.791.357.198.298.554.238.811.357.178.358.574.258.87.397 2.374.855 4.49 2.185 6.606 3.516 8.959 5.561 16.434 12.75 23.02 20.954 7.653 9.533 13.843 19.94 18.293 31.36a31.952 31.952 0 011.088 3.178c.692 2.443 1.206 2.106-1.503 3.575a81.99 81.99 0 01-4.766 2.403c-1.128.517-1.78 1.311-1.938 2.523-.08.655-.238 1.311-.297 1.966-.376 3.952-.435 7.945-.02 11.877.158 1.49-.158 2.344-1.483 2.88-.396-.02-.771-.04-.791-.616 0-.735-.079-1.45-.119-2.184-.237-4.489-.435-8.998-.732-13.466-.138-1.927.455-3.218 2.235-4.191 3.125-1.688 3.066-1.788 1.958-5.263-4.766-14.996-11.984-28.6-22.466-40.378-5.379-6.058-11.431-11.321-18.214-15.75-.613-.397-1.187-.814-1.78-1.232-.139-.099-.277-.198-.416-.278-.158-.297-.534-.198-.731-.436l-.04-.02c-.178-.14-.336-.278-.554-.278z"></path><path fill="#EB4634" d="M228.405 379.885c-.118 3.456-1.779 5.482-4.746 6.574-3.144 1.152-6.447 1.311-9.73 1.252-6.586-.1-13.092-.914-19.579-2.165-6.487-1.252-11.035-4.727-14.14-10.566-2.71-5.085-3.639-10.408-3.323-16.048 0-.02.099-.04.257-.12.455.437.633 1.073.91 1.649 1.305 2.741 2.789 5.382 4.331 8.004 3.52 5.879 8.702 9.414 15.248 11.083 5.992 1.529 12.084 1.747 18.214 1.41 4.134-.239 8.267-.437 12.558-1.073zM170.539 263.618c-3.599 1.291-7.238 2.423-10.738 3.952a125.913 125.913 0 00-10.62 5.263c-.495.278-.93.755-1.721.616-1.384-14.816-5.834-28.878-11.114-42.96 2.215.298 4.113.993 6.032 1.51.712.198.791.993 1.028 1.608 1.918 5.005 3.817 9.991 5.735 14.996.613 1.608 1.305 3.177 1.958 4.766 2.156 5.303 6.111 8.283 11.747 9.097 2.552.377 5.083.675 7.654.834.158.06.217.119.178.199-.059.079-.099.119-.139.119z"></path><path fill="#EB4634" d="M225.854 366.082c-1.76-.06-3.5-.02-5.181-.834a4.02 4.02 0 00-3.283-.12c-1.128.457-2.077.358-3.184-.119-1.8-.774-3.738-.913-5.617-.337-.969.298-1.562.039-2.314-.477-3.5-2.364-7.238-2.562-11.075-.894-1.602.695-2.907 1.808-3.738 3.396-1.404 2.662-.632 5.303 1.998 6.753 1.938 1.053 4.054 1.53 6.21 1.887 2.017.338 4.034.616 6.071.556.653-.02 1.404.04 1.938-.258 1.385-.814 2.749-.457 4.173-.238 1.622.258 3.263.437 4.865-.219.238-.099.514-.238.752-.198 3.322.695 6.664.059 10.007.159.613.019 1.028.198 1.087.854.06.635-.395.754-.87.814-2.333.337-4.667.814-7.02.973-6.171.417-12.361.735-18.511-.218-2.413-.378-4.767-.974-7.041-1.848-3.995-1.549-7.238-4.031-9.552-7.666-.929-1.45-1.839-2.9-2.69-4.389-.771-1.331-.712-1.49.633-2.324 1.187-.715 2.453-1.251 3.778-1.708a35.774 35.774 0 018.286-1.748c8.544-.755 16.968-.357 25.017 3.019 2.413 1.013 4.865 2.105 6.191 4.648-.02.734-.396.774-.93.536zM170.223 318.077c1.542-.158 2.887.259 4.212.437 3.718.477 7.476.775 11.213.974 6.902.377 13.824.675 20.726.417 3.679-.139 7.357-.318 11.036-.696 1.661-.178 1.661-.099 1.72 1.49.178 3.992-.198 4.37-4.133 5.343-2.967.735-5.992.894-8.998 1.033-6.388.297-12.776.297-19.164 0-3.678-.159-7.357-.457-10.996-1.133-.138-.019-.257-.039-.395-.059-2.809-.358-4.608-1.708-4.786-4.767-.04-.973-.257-1.926-.435-3.039z"></path><path fill="#FDDBC4" d="M194.726 354.959c-1.167.517-2.433.457-3.639.715-3.56.735-6.962 1.788-10.047 3.953-.672-.497-.791-1.311-1.147-1.967-.277-.516-.435-1.112-.751-1.608-1.78-2.86-1.958-5.919-1.049-9.097.297-1.251 1.306-1.291 2.314-1.37 2.057-.139 4.054.397 6.091.397 7.357-.04 14.734-.02 22.091 0 1.463 0 2.887-.278 4.311-.357 1.444-.06 2.888-.239 4.292.238.573.298.455.715.178 1.132-1.009 1.49-1.563 3.198-2.116 4.866-.455 1.39-1.226 1.946-2.769 1.807-5.973-.556-11.906-.079-17.799.934-.257.04.079-.04-.138.099-.099.06 0 .219.178.258zM275.375 155.99c1.464 3.436 1.108 6.832-.277 10.169-1.107 2.681-3.006 4.787-5.241 6.614-2.689 2.185-5.735 3.734-8.919 5.045-.237.099-.494.099-.633.119-.455-.179-.395-.477-.395-.715 0-3.456-.297-6.872-.831-10.269-.178-1.092 0-1.807 1.029-2.462 2.096-1.351 4.014-2.98 6.229-4.171 1.108-.596 1.404-1.53 1.009-2.483-.435-.973-1.563-1.41-2.69-.874-.949.457-1.799 1.093-2.67 1.688a197.25 197.25 0 00-3.639 2.582c-.593-1.191-.791-2.383-.85-3.614.139-.298.218-.636.475-.854 4.469-3.655 11.47-6.316 16.909-1.073.138.119.316.219.494.298z"></path><path fill="#E1E1E1" d="M237.463 252.793c1.226 1.291 1.503 3.059 2.235 4.588.198.417.316.874.554 1.272.771 1.251 1.166 1.37 2.571.973 3.54-1.013 7.02-2.165 10.422-3.575.831 2.641.771 2.562-1.424 3.932-3.777 2.344-8.029 3.734-11.866 5.978-.218.139-.435.259-.672.398-.554.437-.851.139-.93-.417-.079-.576-.039-1.172-.02-1.768.04-.953-.336-1.728-1.206-2.046-1.028-.397-1.74.159-2.215 1.073-.376 3.019-.04 6.038-.198 9.056-.02.497.594 1.331-.474 1.569-.693-5.044-1.879-9.99-3.046-14.935-2.195-9.394-5.004-18.61-8.306-27.667-.514-1.39-.514-1.43.91-1.966.553-.199 1.048-.576 1.661-.536.989 2.304 2.314 4.429 3.52 6.594 2.887 5.183 5.518 10.506 7.634 16.047.099.239.277.457.395.676-.039.079-.099.159-.138.238-1.286.874-1.879 2.84-1.305 4.29.138.318.296.616.692.536.376-.079.455-.437.514-.774.158-1.033-.099-2.125.277-3.138a.687.687 0 01.415-.398z"></path><path fill="#EBA98D" d="M92.62 160.439c1.324.854 2.63 1.728 3.955 2.582.534.337.85.754.731 1.469a74.931 74.931 0 00-1.147 12.751c-.672.318-1.147-.059-1.582-.298-6.11-3.197-10.106-8.004-10.798-15.074-.672-6.832 4.747-12.155 11.431-11.44a7.697 7.697 0 013.837 1.45c.593.437.83.953.633 1.708-.534 1.906-1.009 3.833-1.523 5.839-1.325-.397-2.235-1.45-3.48-1.847a3.366 3.366 0 00-.456-.278.36.36 0 00-.336-.119c-1.028-.338-1.74.099-2.195.993-.534 1.072.237 1.668.93 2.264zM263.034 240.202c1.385 1.291 2.967 1.45 4.727.874 2.353-.775 4.687-1.589 6.902-2.721.455-.239.89-.576 1.443-.517-.217.239-.415.497-.672.695-5.597 4.39-11.352 8.541-17.443 12.215-.494.298-.949.715-1.701.814-.514-2.701-1.008-5.422-1.522-8.123-1.405-7.448-3.026-14.856-5.281-22.105-.534-1.708-.514-1.728 1.048-2.523.989-.516 1.978-1.013 2.987-1.509 2.432 6.514 4.865 13.049 7.297 19.563.139.358.277.735.633.973.475.616.93 1.232 1.206 1.986.099.1.218.259.376.378z"></path><path fill="#E1E1E1" d="M209.618 339.508c-10.64-.755-21.22-1.847-31.643-4.21-.969-.219-1.918-.457-2.887-.596-.85-.119-1.088-.576-.989-1.371.119-.913.237-1.827.317-2.76.178-2.086.019-2.106 2.215-1.728 5.794.973 11.648 1.112 17.502 1.231 1.285.02 2.373.338 3.5 1.013 4.509 2.721 9.078 5.323 13.626 7.964-.316 1.033-1.028.517-1.641.457z"></path><path fill="#EBA98D" d="M217.568 346.201c-4.667-.159-9.295.536-13.962.437-5.854-.139-11.708-.06-17.562-.04-2.037 0-4.015-.556-6.071-.437-.772.04-1.405.139-1.879.795.356-2.483.731-4.946 1.048-7.428.119-.854.554-.894 1.226-.755 6.507 1.331 13.092 2.205 19.717 2.84 4.055.397 8.129.695 12.183 1.033 1.76.139 3.54.258 5.28.695.514.139.87.318.811.894-.139 1.172.178 2.383-.316 3.515-.673-.357-.238-1.052-.475-1.549z"></path><path fill="#E1E1E1" d="M106.878 271.96c1.879.258 3.797.119 5.637-.099 2.314-.278 4.608-.795 6.842-1.728 3.422-1.43 5.736-3.873 7.278-7.13.673-1.43 1.246-2.92 1.563-4.469.237-1.092.83-1.847 1.878-2.006 1.029-.159 1.464.695 1.879 1.47.218.417.415.834.613 1.231-.929.497-2.017.814-2.373 1.986 0 .139.02.258.02.398.375.476-.04 1.132.356 1.608.613 3.317 1.345 6.594 1.76 9.951.099.735-.02 1.033-.791 1.211-5.775 1.351-11.629 2.185-17.562 2.284-1.305-.238-2.63-.317-3.935.04-.396.04-.772.06-1.167.099-1.029.12-1.602-.198-1.622-1.35.02-1.172-.475-2.304-.376-3.496z"></path><path fill="#EBA98D" d="M92.619 268.404c.02-.794.06-1.589.04-2.383-.238-5.939.474-11.837.474-17.776 0-1.688.376-3.396.336-5.104-.04-1.649-.02-1.649-1.74-1.748-.198-.02-.376-.06-.574-.099 2.116-.477 4.312-.437 6.428-.795.85-.139.949.378 1.028 1.053.613 5.78 1.582 11.519 2.413 17.259.356 2.423.791 4.827 1.127 7.25.198 1.39.139 1.469-1.285 1.489-2.789.08-5.518.398-8.247.854z"></path><path fill="#FFFFFE" d="M239.697 19.067c-1.305-2.364-3.263-4.092-5.319-5.72-4.47-3.536-9.711-5.383-15.09-6.952-3.659-1.072-7.416-1.648-11.194-2.085-.138-.258-.059-.437.238-.517 1.384.02 2.788-.159 4.173.12 7.614.556 14.97 2.105 21.853 5.54 2.076 1.034 4.014 2.265 5.755 3.814 6.684 5.899 8.247 14.36 4.054 22.265-2.611 4.905-6.665 8.063-11.906 9.771-.257.179-.613.12-.87.338l-.138.1-.158-.02c-.277.178-.613.119-.89.317l-.159.1-.178-.02c-.356.337-.87.04-1.226.337-.217.04-.415.08-.633.1-.534.218-.632-.08-.613-.517.277-.139.633-.08.831-.377h-.02c.238-.179.613-.12.811-.398h-.02c.238-.198.613-.119.791-.416l-.019.02c.257-.18.632-.08.791-.438l-.02.02c.198-.02.316-.198.455-.298 1.76-1.172 3.54-2.284 5.142-3.654a25.184 25.184 0 004.034-4.31c3.006-4.091 3.164-8.5 1.483-13.128-.237-.239-.178-.576-.336-.854l.02.02c-1.028-.815-1.187-2.066-1.642-3.158z"></path><path fill="#CF200D" d="M177.203 41.192c-1.186 1.172-2.67 1.887-4.133 2.543-5.735 2.601-11.688 4.528-18.016 5.183-1.405.14-2.848.259-4.252.676-.851.258-1.207.655-1.207 1.51 0 3.693-.118 7.368.415 11.042.376 2.502 2.037 4.131 4.015 5.362 2.927 1.828 6.151 2.82 9.612 3.218 3.718.417 7.416.834 11.154.755.454-.02.929-.06 1.265.357-.138.338-.593.16-.751.477-1.009.457-2.077.238-3.105.218-6.329-.08-12.598-.556-18.729-2.244-2.927-.814-5.755-1.867-8.424-3.317-1.049-.576-1.484-1.31-1.345-2.542.573-5.184 1.068-10.368 1.602-15.551.059-.656.217-1.113 1.068-1.033 9.275.854 17.996-1.33 26.5-4.826 1.424-.636 2.789-1.47 4.331-1.828z"></path><path fill="#EA4634" d="M170.499 311.245c1.523-4.25 5.024-5.72 9.038-6.335 5.795-.894 11.411.178 16.929 1.807 1.483.437 2.888.616 4.45.298 3.046-.616 6.131-.795 9.216-.099 3.757.854 6.407 2.979 7.574 6.752.119.378.238.775.257 1.152.02.477.396 1.192-.336 1.351-.712.139-.692-.616-.83-1.092-.416-1.49-1.128-2.821-2.176-3.953-3.797-4.111-9.809-3.615-12.835 1.112-.356.557-.653 1.152-.989 1.768-.178-.099-.395-.139-.494-.258-2.057-2.542-4.786-3.118-7.832-2.602-1.008.159-1.878.159-2.828-.357-1.879-1.013-3.955-.974-5.972-.537-.772.159-1.325.139-2.018-.278-4.074-2.482-7.871-1.708-10.699 2.145-.731 0-.652-.397-.455-.874z"></path><path fill="#FFFEFE" d="M200.224 300.599c1.74.735 1.76.735 1.938-.933.257-2.324 1.226-4.429 1.78-6.673.929-3.774 1.582-7.607 1.74-11.5.04-.914.02-1.827-.257-2.741-.198-.675-.336-1.43.217-2.065.04.119.099.258.139.377.039.139.119.258.198.377 1.503 3.675 2.017 7.508 1.918 11.44-.079 3.238-.435 6.455-1.246 9.593-.119.437-.119.934-.257 1.351-.435 1.311-.119 2.324 1.107 3.019.218.119.396.318.614.496-.356.556-.851.258-1.246.258-2.314-.039-4.608.14-6.863.656-.593.139-1.088.199-1.701-.02-5.774-2.006-11.727-2.86-17.838-2.502-.139 0-.257-.02-.396-.04 2.631-1.43 5.518-1.847 8.405-2.423 2.215-.437 4.411-.219 6.606-.08 1.958-.437 3.639.179 5.142 1.41z"></path><path fill="#FEFDFD" d="M232.539 305.367c-.316-.735.277-1.232.455-1.808.336-1.072.791-2.105.85-3.237.119-2.225-.573-3.396-2.59-4.409-.178-.08-.356-.159-.534-.259-.554-.337-1.246-.595-1.167-1.43.079-.754.771-.754 1.305-.993 2.63-1.231 4.272-3.237 4.529-6.216.217-2.463-1.226-4.012-3.244-4.946-1.76-.814-2.491-2.045-2.768-3.932-2.156-15.273-6.032-30.11-11.055-44.668-.238-.675-.534-1.351-.811-2.006 1.384-.556 1.424-.576 1.898.775 2.789 7.765 5.261 15.65 7.278 23.654 1.879 7.508 3.54 15.035 4.628 22.702.217 1.469.83 2.363 2.235 2.919 1.997.815 3.184 2.463 3.915 4.469.495 1.39-.059 2.602-.712 3.754-.672 1.231-1.74 2.145-2.59 3.237a7.516 7.516 0 01-.356.397l-.02.04c-.811 1.966.653 2.503 1.978 3.138.415 3.516-.257 6.594-3.224 8.819z"></path><path fill="#EAA98D" d="M178.865 242.188c-3.085-.596-5.775-2.086-8.346-3.794a20.16 20.16 0 01-3.223-2.602c.514-1.072 1.364-.457 2.096-.417 2.354.119 4.707.199 7.06.358 4.786.357 9.553-.179 14.299-.497 1.958-.139 3.916-.298 5.854-.457.89.258.771.954.692 1.629a1.606 1.606 0 01-.277.516 2.52 2.52 0 01-.712.576c-5.616 2.284-11.549 3.377-17.443 4.688z"></path><path fill="#FEFEFE" d="M293.55 227.967c-.139-.357-.416-.715-.416-1.092-.079-2.066-1.364-3.198-3.006-4.052-1.344-.695-2.709-1.331-4.054-2.046-3.461-1.807-3.619-2.085-3.105-6.494.396-3.476.356-6.813-.85-10.11-.574-1.569-1.325-1.767-2.571-.595-.712.675-1.384 1.39-1.958 2.204-1.463 2.046-3.303 1.847-4.371-.417-.217-.477-.454-.973-.514-1.49-.138-1.211-.83-1.35-1.819-1.052.079-.675.494-1.212.751-1.808.336-.834.95-1.33 1.82-1.231.929.099 1.542.715 1.76 1.649.217.893.356 1.807.534 2.721.059.337.198.635.593.675.317.04.495-.159.633-.378.415-.595.751-1.251 1.206-1.807 2.057-2.522 5.043-2.304 6.625.536 1.543 2.721 1.662 5.661 1.029 8.66-.198.913-.297 1.827-.356 2.741-.119 1.886.732 3.297 2.512 4.051 1.028.437 2.037.914 2.986 1.53 1.997 1.291 3.164 3.118 3.5 5.481.158.974.119 1.847-.929 2.324z"></path><path fill="#FFFEFE" d="M185.154 69.892c2.808-.933 5.656-1.668 8.425-2.74 2.274-.875 4.469-1.888 6.645-3 .909-.457 1.186-1.033 1.107-2.026-.297-4.15-.534-8.302-.791-12.453.692-.159 1.286.219 1.938.298 1.602.199 1.8.199 2.037 2.284.317 2.82.653 5.64.93 8.481.138 1.31.158 2.642.257 3.953.059.794-.336 1.27-1.009 1.509-5.636 2.046-11.253 4.111-17.245 4.906-.198.02-.396 0-.593 0-.673.357-1.444-.08-2.116.337l-.693.06c-.969.218-1.918.278-2.867-.02.138-.874.949-.377 1.186-.874l-.019.02c.474-.358 1.166.139 1.601-.417l-.019.02c.356-.258.87 0 1.226-.338z"></path><path fill="#E0E1E1" d="M208.867 234.641c-.455-.219-.851-.278-1.147.298-.396.754-.89 1.469-1.266 2.224-3.342 6.693-9.097 9.99-16.138 10.884-7.97.993-15.604-.437-22.189-5.502-2.136-1.648-4.035-3.575-5.597-5.799-.198-.278-.336-.556-.297-.914 1.919 1.986 3.837 3.973 6.131 5.542 5.696 3.853 11.886 5.918 18.808 5.203 3.52-.357 6.823-1.43 9.789-3.396 1.78-1.172 3.283-2.661 4.331-4.548.593-1.053 1.068-2.185.93-3.396-.119-.994.237-1.291 1.147-1.351 1.384-.099 2.749-.278 4.113-.437.91-.099 1.424.218 1.385 1.192z"></path><path fill="#FDFDFD" d="M121.968 127.489c.514-.039 1.048-.059 1.562-.099 1.226-.079 1.938-.695 2.433-1.887 3.223-7.765 6.447-15.511 9.492-23.337.079-.178.198-.337.277-.516.791-.02.534.477.455.894-1.483 7.309-2.709 14.657-5.656 21.589-.297.715-.514 1.39-.534 2.244-.02 1.986-.85 2.701-2.789 2.582-3.619-.198-7.218-.496-10.817-.755.079-.834.731-.496 1.166-.536 1.464-.119 2.947.159 4.411-.179z"></path><path fill="#FEFDFD" d="M231.846 344.553c1.662.02 1.662.02 1.444-1.549a132.612 132.612 0 01-1.226-24.727c.119-2.841.198-5.681.297-8.521.593-.278 1.166-.536 1.78-.834.435.477.217 1.013.197 1.509-.158 7.19-.455 14.4.158 21.589.396 4.469.732 8.958 1.958 13.307.099.378.099.795.139 1.172.039.258.039.517-.198.795a32.792 32.792 0 01-5.379-2.304c-.06-.775.415-.556.83-.437z"></path><path fill="#FCDBC4" d="M203.408 372.894a26.6 26.6 0 01-7.396-1.39c-.613-.218-1.226-.496-1.741-.874-.791-.596-.791-1.469-.454-2.323.098-.239.217-.497.375-.696 1.998-2.383 4.628-2.86 7.476-2.343 2.63.476 4.568 1.926 5.28 4.667.633 2.463.079 3.138-2.452 3.039-.237-.02-.514-.06-1.088-.08z"></path><path fill="#EBA98D" d="M62.203 266.002c2.235.715 4.39.178 6.546-.417a7.085 7.085 0 002.294-1.133c.712-.536 1.207-1.211 1.068-2.184-.06-.457.04-.934-.04-1.391-.434-2.323.811-4.031 2.038-5.739.77-1.073 1.859-1.331 2.729-.775.91.576 1.068 1.49.376 2.781-1.088 2.006-.91 4.051-.356 6.137-2.156-.874-3.125-.239-3.046 2.026.06 2.363.06 2.363-2.195 2.899-2.037.477-4.114.815-6.21.616-2.077-.219-2.551-.636-3.204-2.82z"></path><path fill="#FDFDFD" d="M231.411 122.325c3.362-.695 6.408-2.344 9.651-3.396.811-.259.89-.715.752-1.49-.554-3.257-1.049-6.514-1.543-9.772-.099-.655-.178-1.311-.257-1.966-.04-.377-.356-.874.415-.874.257.556.514 1.112.772 1.688 1.305 3.377 2.867 6.654 3.935 10.13.574 1.867 1.286 3.733 1.167 5.918-3.125.06-6.21.1-9.275.159-1.662.278-3.323.08-4.984.119-.356.02-.653-.079-.633-.516zM204.139 102.424c.139.119.258.258.396.378 1.958 4.925 3.56 9.95 4.707 15.114.336 1.787.751 3.575.929 5.402.06.656.238 1.331-.553 1.708-.238.02-.495.06-.732.08-.139-.02-.257-.06-.396-.06-.949-.119-2.136.576-2.808-.179-.573-.635-.218-1.787-.237-2.701-.099-6.494-.772-12.929-1.721-19.345-.138-.417.059-.496.415-.397z"></path><path fill="#FEFEFD" d="M217.568 346.201c.593.378.178 1.073.455 1.549-.04.715.039 1.47-.139 2.165-.652 2.423-.019 4.548 1.365 6.515.059.417-.099.635-.554.556-6.032-1.768-12.182-2.542-18.471-2.364-1.839.04-3.659.219-5.498.318-.376-.04-.771-.099-1.444-.179 2.136-.754 4.094-1.132 6.072-1.43 3.836-.595 7.693-.397 11.569-.397.455 0 .929-.02 1.365.04 1.957.278 1.938.278 2.551-1.51.395-1.171.89-2.343 1.265-3.515.258-.775.89-1.231 1.464-1.748z"></path><path fill="#FDFEFE" d="M275.375 155.99c-.811.536-1.226-.298-1.622-.616-2.947-2.363-6.15-2.641-9.611-1.489-2.453.814-4.628 2.145-6.645 3.733-.95-2.582-.95-2.74.989-4.369 3.144-2.622 6.724-3.833 10.798-2.86 3.025.695 5.082 2.602 6.091 5.601z"></path><path fill="#FCD9C2" d="M178.865 242.187c.218-.715.831-.715 1.424-.854 3.718-.814 7.456-1.529 11.075-2.721 1.74-.576 3.501-1.112 5.261-1.648.138-.099.277-.219.395-.358.158-.198.277-.437.356-.695.139-.397.158-1.072.771-.834.475.199.277.775.099 1.192.04.139 0 .238-.099.317-.098.159-.217.298-.296.477-.712 1.49-1.958 2.463-3.303 3.238-4.964 2.879-10.205 3.495-15.683 1.886z"></path><path fill="#FCDAC3" d="M208.293 316.985c-1.305 0-2.63.02-3.936 0-1.087-.02-1.226-.218-1.008-1.311.494-2.522 2.848-4.508 5.28-4.488 2.393.02 4.865 2.085 5.379 4.468.159.735-.178.954-.81.994-1.642.079-3.264.178-4.905.258v.079z"></path><path fill="#CE200D" d="M179.221 10.328c.039 2.701 1.582 4.489 3.639 5.959.375.258.81.417 1.186.695.514.357.851.873.633 1.529-.198.675-.85.993-1.384.854-1.365-.318-2.888-.139-4.055-1.172.159-.139.475-.1.495-.159.099-.238-.158-.099-.257-.178-.317-.298-.772-.437-1.029-.835-.85-.615-1.74-1.171-2.511-1.867-1.187-1.092-1.088-2.125.237-3.078.969-.655 1.918-1.35 3.046-1.748z"></path><path fill="#F5FAFA" d="M90.325 241.414c-1.918 1.112-3.975 1.569-6.17 1.569-2.156 0-4.331 0-6.487.019-.91 0-1.82-.019-2.729.259a4.282 4.282 0 01-1.938.079c-3.145-.675-6.388-.04-9.552-.715-.83-.179-1.661-.318-2.413-.695 1.444-.596 2.967-.556 4.47-.417 7.02.635 14.06.496 21.082.02 1.226-.119 2.491-.298 3.737-.119z"></path><path fill="#FAD9C2" d="M178.944 316.111c-1.76-.159-3.521-.358-5.281-.497-.811-.059-1.008-.437-.791-1.172.455-1.549 2.176-2.899 3.975-3.098 1.681-.179 3.58.755 4.351 2.165.218.397.376.834.396 1.311.039 1.211-.198 1.47-1.464 1.37-.395-.02-.791-.079-1.167-.119-.019.02-.019.02-.019.04zM209.143 367.334c2.195-.417 3.994-.04 5.656 1.052.731.477 1.305 1.093 1.582 1.947.376 1.191-.139 2.145-1.365 2.363-1.523.278-2.986-.218-4.469-.437-.356-.059-.514-.377-.514-.735.039-1.39-.356-2.701-.89-4.19z"></path><path fill="#E9A88C" d="M60.562 252.118c-.495 1.192-.396 2.463-.277 3.694.198 1.967 1.048 2.761 3.006 2.999.652.08 1.305.02 1.958.04 1.76.02 2.887.934 3.263 2.681.02.12-.198.298-.297.437 0-.993-.554-.953-1.325-.834-2.076.298-4.054-.218-5.913-1.132-2.255-1.112-3.125-3.138-2.571-5.601.297-1.191.87-2.065 2.156-2.284z"></path><path fill="#E8A88D" d="M59.77 243.697c.296.437.672.834.87 1.311.771 1.748 2.195 2.304 3.955 2.324.257 0 .534-.02.791 0 1.464.099 1.919.576 1.978 2.105.02.397-.04.795-.06 1.172-.573-.556-1.324-.417-2.036-.497-1.82-.198-3.402-.933-4.589-2.323-1.008-1.172-1.7-2.483-.91-4.092z"></path><path fill="#F7D6C0" d="M187.31 316.687c-.139-.02-.258 0-.396-.04-.811-.139-2.017.219-2.373-.417-.416-.755-.198-1.887-.257-2.86-.02-.318.158-.497.435-.536 1.503-.179 3.006-.219 4.291.814.297.238.574.556.732.914.653 1.39.079 2.204-1.463 2.165-.317 0-.653-.02-.969-.04z"></path><path fill="#F4D6BF" d="M198.463 316.866c-1.7.278-3.362.02-5.043 0-.474 0-.672-.278-.652-.775.019-.516-.04-1.052-.079-1.569-.02-.357.098-.595.474-.734 1.978-.735 4.668.754 5.3 3.078z"></path><path fill="#FCF1EA" d="M215.59 225.902c-1.582 1.191-3.54 1.549-5.3 2.363-.633.298-1.325.497-1.879.953-.02.02.02.12.039.179.04.06.099.08.139.139-1.563.497-3.184.616-4.806.775l-2.353-.139c.989-.755 1.898-.894 2.768-1.152 3.58-1.053 7.239-1.867 10.779-3.079.197-.079.415-.039.613-.039z"></path><path fill="#F2D3BD" d="M218.28 367.73c2.532.1 3.778.994 4.173 2.821.158.675.218 1.41-.474 1.728-.772.377-1.662.278-2.492.039-.238-.079-.257-.417-.218-.695.178-1.37-.297-2.582-.989-3.893z"></path><path fill="#D93B2B" d="M113.899 37.339c.495.179.633.655.831 1.053 1.681 3.634 3.955 6.812 7.258 9.175.435.318.751.735.692 1.331-.119-.06-.257-.12-.376-.179a.92.92 0 01-.356-.258c-3.362-2.204-5.814-5.164-7.436-8.858-.316-.735-.632-1.47-.613-2.264z"></path><path fill="#F0D1BB" d="M225.321 372.378c.158-1.252-.04-2.284-.416-3.575 1.543.198 2.71.536 3.441 1.787.475.815.337 1.192-.514 1.53-.751.278-1.523.297-2.511.258z"></path><path fill="#3B3737" d="M234.239 273.806c.554-.595.376-1.35.396-2.065.039-2.225 0-4.449.039-6.674 0-.635-.178-1.31.258-1.886.039.596.098 1.171.098 1.767 0 3.893 0 7.786-.138 11.679-.435-.894-.929-1.768-.653-2.821z"></path><path fill="#433939" d="M234.932 263.201c-.079-1.191.652-1.628 1.681-1.668.988-.04 1.582.596 1.76 1.509.158.835.158 1.689.158 2.523 0 .556.178.854.771.794-.455.596-.909.596-1.087-.139-.159-.556-.06-1.172-.099-1.767-.119-2.006-1.029-2.463-2.809-1.43-.138.079-.276.119-.375.178z"></path><path fill="#707E7E" d="M121.968 127.489c-1.068.496-2.195.198-3.303.318-.751.079-1.582-.239-2.254.397-1.484.298-2.888-.417-4.351-.397-.139-.08-.198-.139-.139-.219.04-.079.099-.099.139-.099 3.302-.139 6.605-.159 9.908 0z"></path><path fill="#2F2E2E" d="M209.618 125.026c.494-1.489-.06-2.939-.139-4.409-.059-.894-.336-1.787-.217-2.701.85 1.887 1.048 3.952 1.522 5.958.159.715-.336 1.212-1.166 1.152z"></path><path fill="#5B8F8E" d="M212.505 3.912l-4.449.06c-.396.298-.871.159-1.306.199-1.008-.06-2.017.139-3.006-.12-.613-.02-1.206-.06-1.819-.079.514-.357 1.107-.357 1.681-.357 2.472-.02 4.924-.02 7.396 0 .514-.02 1.048-.04 1.503.297z"></path><path fill="#F6E6E4" d="M182.365 70.606c-.118.378-.553.437-.731.894h2.432c-1.127.497-2.314.378-3.5.437-.831-.04-1.78.656-2.453-.397 1.424-.298 2.769-.894 4.252-.934z"></path><path fill="#3A251F" d="M92.619 160.439c-1.365-.854-1.72-1.569-1.266-2.562.455-.953 1.167-1.152 2.532-.715-2.176.814-2.374 1.311-1.266 3.277z"></path><path fill="#AD9C9C" d="M231.411 122.325c.554.556 1.246.278 1.86.318 1.245.06 2.491-.199 3.718.079-2.512.477-5.044.338-7.575.338.574-.536 1.246-.735 1.997-.735z"></path><path fill="#494040" d="M130.215 261.235c.138-1.728.356-1.926 2.373-1.986.237.417.87.576.771 1.212-1.305-.735-2.234-.04-3.144.774z"></path><path fill="#323737" d="M235.763 296.568c-2.373-.457-2.868-1.073-2.275-2.9.04-.099.198-.159.297-.238-.099 1.152.277 2.006 1.404 2.462.297.1.554.279.574.676z"></path><path fill="#DEA19C" d="M178.093 71.54c.732.636 1.662.06 2.453.397-1.721.576-3.501.318-5.261.378.099-.417.475-.378.752-.477.731.179 1.344-.437 2.056-.298z"></path><path fill="#DEB7A4" d="M198.226 236.289c-.04-.318-.099-.616-.158-.993-.396.456-.416 1.152-1.068 1.31.02-.635.079-1.291-.376-1.827.198-.04.376-.119.574-.139 1.72-.159 1.72-.139 1.028 1.649z"></path><path fill="#E9EEEE" d="M215.59 62.325c-.416.08-.91-.04-1.207.417-.731-.08-1.325-.517-1.938-.834 0-.775.495-.517.91-.437.791.139 1.562.337 2.235.854z"></path><path fill="#E6E5E0" d="M245.611 135.394l-.376.377c-.534-.993-1.127-1.966-.91-3.158.515.874 1.049 1.748 1.286 2.781z"></path><path fill="#BDC8C8" d="M213.336 61.47c-.317.12-.712.06-.91.438-.85-.14-1.602-.576-2.393-.874.119-.675.554-.417.93-.318.87.06 1.661.258 2.373.755z"></path><path fill="#661E16" d="M170.499 311.245c.099.298.02.695.435.834-.138.775-.534 1.41-1.087 2.404-.139-1.411.158-2.344.652-3.238z"></path><path fill="#EFF3F3" d="M110.062 276.727c1.306-.636 2.611-.596 3.936-.04-1.325.159-2.63.198-3.936.04z"></path><path fill="#3A0903" d="M178.449 17.041c.692.08 1.167.556 1.662.973-.238.338-.594.14-.871.199-.474-.437-1.226-.179-1.661-.715.336-.08.712-.08.87-.457z"></path><path fill="#C8CECE" d="M136.207 102.524c-.158-.298-.099-.695-.455-.894.079-.814.158-1.628 1.127-1.906 0 .198-.02.397-.02.595-.217.418-.059.894-.257 1.311-.138.318-.079.695-.395.894z"></path><path fill="#E6ECEC" d="M138.5 286.638c-.019-.557-.019-1.113-.039-1.669.158-.357.415-.635.811-.735-.02.894.316 1.887-.772 2.404z"></path><path fill="#F5E3E1" d="M227.397 45.998c.198.18.396.338.593.517-.474.437-1.068.338-1.621.397-.376.12-.831.377-.831-.377.653-.12 1.167-.576 1.859-.536z"></path><path fill="#8A281E" d="M225.854 366.082c.337-.099.752-.099.93-.517.415.159.831.298 1.009.974-.732 0-1.365-.02-1.939-.457z"></path><path fill="#827676" d="M209.617 339.508c.514-.298 1.226.219 1.642-.437.375-.04.593.239 1.028.636-1.028.218-1.859.218-2.67-.199z"></path><path fill="#6A6B65" d="M169.392 235.375c-.672.318-1.503-.198-2.096.417-.337-.179-.851-.536-.178-.695.712-.159 1.562-.159 2.274.278z"></path><path fill="#DC8F89" d="M225.558 46.515c.198.298.554.238.831.377-.89.536-1.879.397-2.828.397.474-.695 1.344-.457 1.997-.774z"></path><path fill="#131313" d="M221.642 347.254c.297-.02.475.139.534.417a.363.363 0 01-.257.437c-.277.099-.534.02-.613-.259-.119-.297.059-.496.336-.595z"></path><path fill="#685454" d="M136.582 279.05c.376.516.099 1.489 1.088 1.589-.415.655-.811.576-1.088-.08a2.093 2.093 0 010-1.509z"></path><path fill="#E3C3C0" d="M231.846 344.553c-.297.119-.672.079-.811.457-.474.079-.791-.279-1.186-.457-.099-.358.019-.517.395-.437.554.099 1.147.02 1.602.437z"></path><path fill="#F6E6E4" d="M184.738 71.44c.633-.595 1.385-.377 2.116-.337-.652.397-1.384.397-2.116.338z"></path><path fill="#D38B85" d="M230.244 344.116c-.138.139-.257.278-.395.437-.514-.139-1.009-.298-1.365-.715.594-.02 1.227-.179 1.76.278z"></path><path fill="#9CC5C5" d="M210.982 60.696c-.336.06-.673.06-.93.318-.296-.06-.672-.1-.672-.437 0-.417.475-.178.692-.298.297.14.613.278.91.417z"></path><path fill="#4D4545" d="M244.859 216.805c.02.258.218.357.416.476-.277.298-.653.517-.91.139-.178-.278.178-.516.494-.615z"></path><path fill="#A29F9F" d="M218.695 357.005l.554-.556c.356.139.593.536.415.735-.296.358-.712.199-.969-.179z"></path><path fill="#494040" d="M130.591 263.241a1.812 1.812 0 01-.356-1.609c.474.457.474 1.013.356 1.609z"></path><path fill="#FCF1EA" d="M209.262 229.417c.356-.437.811-.378 1.285-.318-.376.357-.811.397-1.285.318z"></path><path fill="#F5E3E1" d="M228.623 46.396c.316-.437.771-.417 1.226-.337-.356.317-.751.437-1.226.337z"></path><path fill="#575151" d="M112.04 127.469a.85.85 0 000 .318h-1.147c.296-.457.731-.358 1.147-.318z"></path><path fill="#252323" d="M136.603 101.65c-.06-.457-.06-.914.257-1.311.138.477.158.933-.257 1.311z"></path><path fill="#F5E3E1" d="M231.392 45.62c.217-.337.514-.416.87-.337-.218.298-.514.398-.87.338zM230.205 45.998c.218-.337.534-.397.89-.317-.237.298-.534.377-.89.318z"></path><path fill="#892E22" d="M170.54 263.618c-.02-.119-.04-.218-.04-.337.218-.02.534-.179.534.198 0 .159-.297.179-.494.139z"></path><path fill="#E9EEEE" d="M216.481 62.682c-.376.08-.693.02-.871-.358.356-.04.673.02.871.358zM219.19 63.854c-.356.08-.653.02-.811-.358.336-.04.633.02.811.358z"></path><path fill="#EBA98D" d="M243.238 130.548c-.297-.1-.416-.318-.376-.636.277.119.415.318.376.636z"></path><path fill="#D9DADA" d="M164.606 330.689c.178-.297.455-.377.772-.357-.178.278-.435.377-.772.357z"></path><path fill="#E9EEEE" d="M218.379 63.476c-.356.06-.633-.02-.791-.357.336-.02.613.04.791.357zM220.079 64.25c-.376.06-.712.02-.87-.397.336-.02.672.06.87.398zM217.548 63.12c-.337.059-.594-.02-.772-.338.337-.06.594.06.772.337z"></path><path fill="#E6E5E0" d="M246.363 136.963c-.218-.1-.317-.278-.257-.517.217.1.296.278.257.517z"></path><path fill="#685454" d="M137.67 280.639c.059-.258.237-.317.475-.298-.06.259-.198.378-.475.298z"></path><path fill="#E6ECEC" d="M139.688 283.877c-.04.218-.178.338-.396.377.02-.258.158-.377.396-.377z"></path><path fill="#D9DADA" d="M165.002 329.498c-.198-.06-.336-.179-.376-.397.218.039.336.178.376.397zM165.378 329.915a.546.546 0 01-.376-.397c.237.039.356.158.376.397z"></path><path fill="#DEB7A4" d="M197.85 237.104c-.02-.239.079-.398.297-.477.02.238-.079.377-.297.477z"></path><path fill="#E6E5E0" d="M245.987 136.169c-.218-.119-.317-.278-.277-.536.237.099.316.298.277.536z"></path><path fill="#FDDBC4" d="M205.979 277.442c-.198-.06-.277-.179-.198-.378.238.06.277.199.198.378z"></path><path fill="#323737" d="M233.805 293.39c-.02-.258.118-.377.356-.397 0 .238-.119.378-.356.397z"></path><path fill="#3A251F" d="M94.22 157.301c.238-.04.377.059.456.278-.218.039-.376-.06-.455-.278z"></path><path fill="#CF200D" d="M121.928 48.441c.118.1.237.18.356.259-.178.02-.297-.08-.356-.259z"></path><path fill="#D9DADA" d="M165.377 330.292c0-.119 0-.258.02-.377.316.139.415.278-.02.377z"></path><path fill="#FF8631" d="M340.123 193.349c-.731-.298-1.424-.655-2.175-.914-.831-.278-.91-.695-.633-1.469 1.286-3.675 2.69-7.309 4.272-10.865.455-1.012.949-1.052 1.799-.575 1.444.774 2.927 1.509 4.391 2.244.356.179.692.417 1.048.516.554.159 1.048-.039 1.345-.556.257-.457.138-.894-.158-1.291-.376-.496-.89-.774-1.424-1.053-1.543-.754-3.066-1.509-4.608-2.244-.396-.179-.712-.377-.475-.874.198-.437.435-.834 1.029-.615.435.158.87.297 1.305.456 3.876 1.51 7.554 3.397 10.877 5.939.217.159.395.357.633.457.573.278 1.186.298 1.602-.259.395-.536.316-1.151-.139-1.628-.415-.417-.89-.795-1.364-1.132-3.224-2.324-6.724-4.131-10.423-5.581-.534-.219-1.068-.417-1.799-.715 1.503-2.403 3.026-4.608 5.339-6.117 1.444-.934 3.006-1.291 4.707-.894 3.125.735 5.953 2.045 8.227 4.389 3.006 3.079 2.294 6.415.752 9.851-2.294 5.085-5.439 9.653-8.722 14.141-5.063 6.912-10.066 13.903-16.236 19.921-1.503 1.47-3.184 2.761-4.727 4.211-.89.854-1.997 1.271-3.263.854-1.108-.675-.752-1.788-.633-2.701.277-2.086.692-4.151 1.127-6.217a156.859 156.859 0 013.105-12.056c.376-1.231.396-1.251 1.622-.774 1.839.715 3.639 1.509 5.261 2.661.276.199.534.397.83.536.613.318 1.147.159 1.543-.397.356-.516.237-1.013-.139-1.45-.573-.655-1.325-1.072-2.076-1.489-.732-.437-1.503-.834-2.235-1.232-.119-.337.059-.476.356-.536 1.226-.357 1.424-1.092.791-2.125l-.039-.02c-.119-.278-.515-.159-.693-.397z"></path><path fill="#E46C1A" d="M331.303 219.606c1.305.139 2.294-.537 3.144-1.351 2.136-2.046 4.41-3.952 6.507-6.038 2.61-2.601 4.805-5.581 7.08-8.441 4.331-5.442 8.464-11.043 12.202-16.941 1.661-2.622 3.125-5.323 4.232-8.243.949-2.502 1.048-4.846-.751-7.031-.218-.278-.277-.595-.238-.933 2.275 1.629 3.699 3.893 4.806 6.395.791 1.788.376 3.496-.593 5.105-1.662 2.78-3.283 5.561-5.024 8.302-4.41 6.991-9.077 13.783-14.614 19.94-2.077 2.304-4.312 4.449-6.823 6.296-1.879 1.371-3.896 2.483-6.151 3.079-1.246.298-2.531.675-3.777-.139z"></path><path fill="#52992B" d="M376.987 151.74c-1.186 2.721-3.204 4.826-5.142 6.971-.257.298-.613.517-.85.835-.475.615-.653 1.33-.237 2.045.455.795 1.186.973 2.037.854.633-.079 1.068-.496 1.562-.814 1.899-1.251 3.995-2.006 6.151-2.622.514-.139 1.008-.278 1.621 0-.316.993-1.008 1.669-1.799 2.264-3.62 2.761-7.239 5.522-10.858 8.263-1.008.754-1.107.695-2.373-1.013.297-.616.93-.914 1.404-1.351.455-.417.574-.894.297-1.43-.336-.655-.93-.695-1.543-.496-.633.218-1.127.655-1.641 1.092-.317.258-.633.516-1.048.199-.495-.378-.297-.795-.06-1.212l.89-1.549c.455-.794.178-1.45-.474-1.887-.712-.496-1.246-.02-1.662.556-.514.715-.731 1.629-1.463 2.384-1.009-3.516 1.483-15.393 3.777-18.134.416 2.344.277 4.549.02 6.733-.119.973-.356 1.947-.514 2.92-.139.933.118 1.708.969 2.204.87.517 1.661.259 2.373-.337.396-.338.692-.795 1.048-1.172 1.998-2.224 4.094-4.29 6.942-5.422.257-.159.435-.119.573.119z"></path><path fill="#C36927" d="M340.183 196.05c-.158.139-.297.279-.455.418-.969-.338-1.918-.676-2.887-1.033-.356-.139-.831-.278-.633-.755.138-.338.553-.218.85-.099.712.278 1.444.556 2.156.834.197 0 .336.159.514.238.119.04.237.06.376.06.118.04.178.119.158.198-.02.1-.04.139-.079.139z"></path><path fill="#492A0F" d="M340.183 196.05c-.04-.099-.06-.218-.079-.318.85-.397.83-1.152.771-1.926 1.028 1.271.949 1.549-.692 2.244zM340.123 193.349c.336-.039.593.1.712.417-.336.04-.574-.099-.712-.417z"></path><path fill="#527C69" d="M376.987 151.739a4.998 4.998 0 01-.534-.139c.119-.238.336-.377.574-.258.217.1.099.278-.04.397z"></path><path fill="#492A0F" d="M339.728 195.673a.525.525 0 01-.514-.239c.237-.039.395.06.514.239z"></path><path fill="#EDA27A" d="M321.158 286.578c-3.54-.278-7.001-1.033-10.482-1.649-6.012-1.072-12.004-2.284-17.996-3.455-.515-.1-1.029-.278-1.543-.358-.672-.099-1.028-.496-1.167-1.152-.455-2.284-.514-4.588-.593-6.892-.02-.615.297-.933.85-1.172 1.424-.615 2.749-.774 4.015.418.85.814 1.8 1.549 2.729 2.284 1.167.913 2.472 1.191 3.896.655.317-.119.653-.139.93-.298 1.977-1.152 3.5-.338 4.904 1.132.554.576 1.088 1.152 1.661 1.688 1.978 1.748 4.055 1.907 6.349.537 1.621-.974 1.621-.974 2.986.218.494.437.969.894 1.503 1.291 1.602 1.212 3.283 1.728 5.043.338.752-.596 1.305-.397 1.839.258l1.365 1.668c.316 2.384-.435 3.833-2.373 4.529-1.306.258-2.611-.417-3.916-.04z"></path><path fill="#FFDBA9" d="M327.486 278.296c-1.404-1.172-2.867-1.549-4.43-.278-.811.655-1.602.476-2.333-.119-.772-.616-1.484-1.311-2.255-1.927-1.622-1.271-2.591-1.331-4.311-.258-2.433 1.509-3.026 1.43-5.083-.656-.593-.615-1.206-1.231-1.879-1.767-1.661-1.331-3.559-1.887-5.517-.874-1.919.993-3.382.496-4.727-.953-.079-.1-.198-.179-.296-.259-2.947-2.522-3.521-2.681-7.417-1.688v-9.494c1.622.596 3.283 1.192 4.925 1.828 11.173 4.27 22.248 8.838 33.323 13.346.119.04.198.159.297.239.217.993.415 1.986-.297 2.86zM322.72 269.159c-3.461-1.37-6.942-2.741-10.403-4.111-6.387-2.562-12.775-5.144-19.242-7.528-.396-.139-.93-.139-1.305-.834.889-.476 1.779-.933 2.669-1.41.376-.198.752-.238 1.128-.02 1.404.854 3.045.874 4.588 1.013 2.828.258 5.043-1.132 6.763-3.317.277-.357.495-.754.752-1.132 1.345.219 2.808.139 3.659 1.549-.851 3.059.573 5.045 3.757 5.244.514.04 1.029.02 1.543.02 1.76 2.383 3.916 4.389 5.814 6.633.455.556 1.028 1.013 1.384 1.669.732 1.311.475 1.807-1.107 2.224z"></path><path fill="#FBFCFB" d="M322.72 269.159c1.424-.933 1.503-1.271.257-2.641-1.879-2.106-3.817-4.151-5.735-6.237-.435-.477-1.048-.874-.613-1.668.81-.298 1.463-.159 2.096.536 3.421 3.654 6.724 7.408 9.592 11.52.079.436-.06.655-.534.556-1.701-.616-3.422-1.252-5.063-2.066z"></path><path fill="#F7F4F3" d="M325.113 286.299c.811 0 1.147-.596 1.365-1.211.356-.974.652-1.987.969-2.98 1.8 1.669 1.918 2.344.989 4.529-.238.576-.594.834-1.187.754-.969-.119-1.938-.258-2.907-.377-.237-.794.573-.417.771-.715z"></path><path fill="#F8FAF8" d="M311.329 253.35c-1.088-.318-2.018-1.112-3.244-.953-.277.04-.296-.378-.415-.596.059-.933.475-1.311 1.483-1.37 1.404-.06 2.69.039 3.876 1.072-.415.814-1.226 1.192-1.7 1.847z"></path><path fill="#F1F2F2" d="M297.228 248.563c-.118.636-.059 1.331-.435 1.907-.296.476-.712.794-1.285.715a1.34 1.34 0 01-1.167-.934c-.316-.933-.178-1.827.435-2.602.376-.496.87-.834 1.523-.635.732.238.929.834.929 1.549z"></path><path fill="#F6F6F5" d="M327.486 278.296c.099-.954-.316-1.967.316-2.86 3.006 1.012 2.65.834 2.156 3.515-.079.457-.138.914-.237 1.49-1.048-.477-1.582-1.371-2.235-2.145z"></path><path fill="#E4E6E6" d="M319.24 254.264c0 .774-.574 1.35-1.345 1.37-.87.02-1.8-.814-1.859-1.668-.04-.795.633-1.47 1.463-1.47.91.02 1.741.874 1.741 1.768z"></path><path fill="#E5C0B2" d="M325.114 286.299c-.258.239-.515.477-.772.695-1.107.179-2.116-.297-3.184-.417 1.266-.675 2.63-.218 3.956-.278z"></path><path fill="#BEC2C1" d="M327.783 271.225c.178-.179.356-.377.534-.556.178.179.376.338.534.516.158.159.198.378.04.497-.099.079-.337 0-.495-.04-.237-.059-.494-.139-.613-.417z"></path><path fill="#FF960D" d="M23.44 131.799c0-7.428 4.945-14.28 12.123-16.564 8.781-2.821 19.223-.795 25.532 8.937.316.497.712.954.81 1.569 1.8 7.567-1.779 14.181-9.393 17.597-5.992 2.701-12.004 3.258-18.115.477-.712-.318-1.543-.794-2.136.079-.594.894.04 1.589.573 2.284.633.835 1.919 1.351 1.385 2.781-.218.457-.475.914-.673 1.41-.553 1.43-.79 1.629-2.254 1.291-1.879-.417-3.797-.854-5.459-1.906-1.839-.735-2.175-2.225-2.056-4.012.118-1.629 1.147-2.185 2.55-2.563 1.662-.437 1.92-1.251 1.01-2.76-.515-.854-1.306-1.49-1.82-2.344-1.187-1.907-1.899-3.992-2.077-6.276z"></path><path fill="#E4E4E4" d="M9.004 163.577c2.254.358 4.093-.576 5.616-2.363 1.86-2.165 3.323-4.588 4.786-7.011.416-.676.83-1.351 1.226-2.046.277-.477.574-.675 1.108-.318 1.424.973 3.045 1.549 4.628 2.205.751.298.79.695.474 1.37-1.285 2.821-2.67 5.601-4.232 8.282-.435.735-.87 1.47-1.285 2.225-.475.874-.515 1.728.04 2.621 1.047 1.728.573 3.456-.317 5.045-.712 1.271-2.374 1.629-3.857 1.073-1.582-.596-2.195-1.609-1.938-3.337.139-.874 0-1.589-.771-2.085-.752-.477-1.523-.378-2.215.099-1.563 1.092-3.342 1.172-5.122.933-1.76-.238-3.006-1.549-3.125-3.078-.119-1.41.81-2.94 2.136-3.496.87-.337 1.8-.139 2.848-.119z"></path><path fill="#E76200" d="M34.199 148.999c-.099-1.212-1.167-1.708-1.84-2.463-.533-.596-1.047-1.152-.988-2.045.079-1.45 1.048-2.145 2.393-1.53 2.155.993 4.41 1.549 6.744 2.066 2.71.596 5.22-.02 7.732-.656 3.204-.814 6.21-2.184 8.722-4.389 2.57-2.264 4.272-5.065 4.924-8.54.356-1.927.06-3.774.02-5.661a17.658 17.658 0 012.73 8.163c.256 3.178-.851 5.839-2.967 8.123-3.679 3.973-8.306 5.919-13.607 6.455-3.54.358-7.08.656-10.62.02-1.107-.258-2.234-.238-3.243.457z"></path><path fill="#E56200" d="M23.44 131.799c.594.596.653 1.39.851 2.145.534 1.986 1.266 3.873 2.828 5.303.593.556.93 1.271 1.226 2.006.475 1.172-.158 2.244-1.404 2.443-.316.059-.652 0-.969.059-1.226.258-1.582.755-1.72 2.006-.178 1.649.276 2.96 1.582 3.992-.613 0-1.147-.278-1.662-.556-2.056-1.132-2.531-3.277-1.147-5.184.198-.258.416-.516.633-.754 1.167-1.172 1.286-2.443.633-3.972-1.048-2.364-1.345-4.886-.85-7.488z"></path><path fill="#FFFFFF" d="M104.861 368.863c-4.074-1.987-7.733-4.489-9.928-8.66-.336-.635-.83-1.092-1.582-.755-.771.318-.771 1.013-.554 1.689.435 1.271 1.207 2.343 2.037 3.356 1.226 1.49 2.75 2.642 4.173 3.893.06.397-.06.616-.514.496-4.39-1.43-8.306-3.694-11.411-7.15-4.311-4.786-5.182-10.208-2.512-16.147.95-2.125 2.275-4.012 3.659-5.859 1.424-1.906 2.848-3.793 4.232-5.74 1.681-2.343 1.76-4.747.099-7.17-.297-.437-.534-.913-.791-1.37-.218-.397-.554-.794.02-1.192.514-.377 1.008-.337 1.404.1.751.834 1.305 1.807 1.839 2.8.277.516.554 1.053.87 1.549.218.378.613.517 1.029.457.553-.079.494-.556.494-.933 0-1.133-.02-2.245-.04-3.377 0-.516-.138-1.132.534-1.331.732-.218 1.326.139 1.662.775.257.457.356.993.494 1.49.079.317.099.655.158.973.119.655.257 1.43 1.088 1.41.91-.04.752-.914.87-1.51.158-.913.277-1.827.495-2.72.098-.398.474-.696.909-.576.317.079.495.397.515.774.019 1.132.098 2.244.079 3.377 0 1.489.613 2.423 2.037 3.018a71.722 71.722 0 016.249 2.94c4.727 2.502 8.801 5.799 11.826 10.268 1.879 2.781 3.224 5.78 3.145 9.216-.119 5.859-2.967 10.129-7.733 13.267-.652.437-1.305.874-2.096 1.092-.178.04-.316.179-.494.259a.427.427 0 01-.337.099c-.178.139-.336.119-.494-.04.039-.357.336-.536.554-.755a.623.623 0 01.316-.357c1.918-2.582 3.382-5.363 3.619-8.64.04-.516.04-1.072-.059-1.569-.119-.576-.554-.893-1.147-.893-.613 0-.989.357-1.127.913-.099.378-.02.795-.08 1.172-.672 5.104-3.203 8.838-7.93 11.043-.91.437-1.562.357-2.195-.477-3.995-5.243-6.704-11.043-7.634-17.597-.138-1.033-.059-2.105-.04-3.178 0-.675-.237-1.191-.929-1.291-.732-.119-1.088.417-1.246 1.013-.158.576-.218 1.172-.237 1.768-.08 2.344.356 4.608 1.028 6.832 1.365 4.608 3.481 8.838 6.17 12.791.08.417-.059.576-.494.457z"></path><path fill="#A1ADAD" d="M99.759 368.823c.277.139.534.278.811.417.118.1.158.199.118.298-.039.1-.079.139-.118.139-.455 0-.87-.099-1.207-.417 0-.258.238-.298.396-.437z"></path><path fill="#D4D3D3" d="M99.759 368.823c-.139.139-.277.298-.415.437-.337-.02-.653-.06-.85-.378.177-.159.335-.337.513-.496.337 0 .534.238.752.437z"></path><path fill="#3D4040" d="M115.975 368.068c-.099.258-.356.437-.494.159-.139-.298.178-.517.494-.596.218.139.218.278 0 .437z"></path><path fill="#BBB6B6" d="M104.861 368.862c.159-.158.337-.317.495-.476.138.119.277.238.435.377.118.219.099.417-.079.616-.336-.1-.692-.139-.851-.517z"></path><path fill="#686E6E" d="M105.711 369.359c.02-.199.039-.417.079-.616.297.119.534.378.435.675-.099.279-.376.239-.514-.059z"></path><path fill="#515353" d="M100.569 369.677v-.437c.337.06.693.258.554.576-.119.298-.415.119-.554-.139z"></path><path fill="#BAB8B8" d="M115.976 368.068c0-.139 0-.298-.02-.437.119-.099.237-.099.336 0 .158.02.317.02.495.04-.159.337-.475.357-.811.397zM117.182 366.499c.019.238-.079.358-.317.358 0-.219.099-.318.317-.358zM117.143 367.571c.079-.238.237-.337.494-.258-.099.219-.237.318-.494.258z"></path><path fill="#FFC837" d="M43.514 297.978c-13.25-.139-32.572-7.984-38.367-27.924-2.037-7.011-2.037-14.062.02-21.073.396-.318.514-.854.89-1.212 2.927-3.893 9.651-2.184 11.273 2.284 1.78 4.886 3.46 9.851 5.953 14.459 3.302 6.078 7.732 10.944 14.001 14.042 3.461 1.708 7.14 1.609 10.779 1.986.969.1 1.977-.02 2.966.04 4.094.238 6.902 2.264 8.366 6.137.93 2.463.573 3.913-1.385 5.68-1.997 1.788-4.311 2.999-6.803 3.933-.435.139-.87.238-1.305.377-.158.06-.317.119-.495.159-.316.099-.652.199-.969.318a3.58 3.58 0 01-.494.139c-.791-.04-1.523.278-2.274.417-.258.02-.515.02-.772.02-.435.04-.949-.119-1.384.218z"></path><path fill="#FEFFFE" d="M50.733 296.111c2.373-1.132 4.805-2.085 6.783-3.933 2.076-1.946 2.294-2.939 1.305-5.561-1.463-3.873-4.41-5.402-8.247-5.581-1.898-.079-3.817-.178-5.715-.198-5.162-.04-9.394-2.225-13.29-5.303-5.122-4.032-8.385-9.395-10.838-15.333-1.404-3.416-2.729-6.872-4.074-10.308-.988-2.503-2.986-3.555-5.498-3.833-1.285-.139-2.472 0-3.48.973-.475.457-1.068.775-1.602 1.152-.376 0-.593-.119-.455-.556.574-1.847 1.226-3.655 3.283-4.409.573-.219 1.107-.398 1.72-.179 1.049.377 2.117.715 3.165 1.112 2.551.993 4.49 2.681 5.794 5.124 1.147 2.165 1.919 4.489 2.73 6.793 1.226 3.495 2.472 6.971 4.291 10.208 3.303 5.879 7.93 10.13 14.476 12.096 3.066.914 6.19 1.271 9.375.814 1.839-.258 3.638-.179 5.478.159 3.46.636 5.517 2.542 6.269 6.693.653 3.655-.83 6.654-4.015 8.561-1.997 1.191-4.094 2.065-6.427 2.363-.435.218-.97.02-1.385.318-.197.02-.395.04-.612.079-.554.06-1.247.576-1.425-.496h.02c.356-.298.89.02 1.207-.398h-.02c.336-.238.91.12 1.187-.357z"></path><path fill="#FAF1E4" d="M48.32 296.925c.355.517.929.378 1.423.497-1.048.556-2.195.377-3.322.437-.257.119-.514.119-.791.039-.1-.099-.139-.198-.1-.297.04-.1.06-.159.1-.159.91-.139 1.76-.596 2.69-.517z"></path><path fill="#FFD873" d="M45.63 297.66c.257.06.534.12.79.179-.948.338-1.937.278-2.906.139.04-1.132.87-.437 1.344-.596.198.259.534.139.772.278z"></path><path fill="#D5D4BA" d="M5.622 247.67c.158.179.296.357.455.556-.159.417-.455.675-.91.775.06-.497.02-.993.455-1.331z"></path><path fill="#FAF1E4" d="M50.356 297.343c.376-.477.87-.398 1.385-.318-.416.357-.89.377-1.385.318z"></path><path fill="#DB3039" d="M276.047 317.939c1.167-.993 2.492-1.688 4.015-1.907.672-.099 1.206-.457 1.76-.775.672-.278 1.206-.794 1.879-1.072 6.229-2.483 12.123-1.629 17.739 1.787.673.418 1.305.894 1.8 1.53.633.556 1.068 1.311 1.661 1.906.237.259.218.656.495.894.138.199.237.437.355.656 2.117 5.879 1.424 11.499-1.542 16.902-2.709 3.396-6.526 3.535-10.244 3.018-2.65-.377-5.182-.556-7.812-.039-5.043.993-10.64-1.986-13.626-7.17-2.472-4.29-1.919-9.812 1.325-13.724.672-.755 1.523-1.271 2.195-2.006z"></path><path fill="#B4040D" d="M276.047 317.938c-.929 1.252-1.978 2.463-2.769 3.794-3.48 5.78-1.443 12.195 3.501 16.088 2.076 1.648 4.509 2.343 7.04 2.76 1.207.199 2.334-.278 3.481-.496 2.096-.397 4.173-.517 6.21.218 2.116.755 4.133 0 6.19-.258 1.76-.199 3.164-1.152 4.529-2.205-1.662 3.953-4.806 6.376-8.643 5.859-2.096-.278-3.678.12-5.478.974-2.828 1.35-5.873 1.39-8.86.456-5.201-1.608-9.156-4.826-11.688-9.692-1.898-3.654-1.918-7.368.119-10.983 1.543-2.701 3.461-5.104 6.368-6.515z"></path><path fill="#F8F9F9" d="M303.359 318.038c-3.125-2.701-6.744-4.171-10.818-4.628-3.065-.337-5.973.338-8.88 1.132-.375.1-.494-.079-.455-.437 5.874-3.436 13.923-2.86 18.808 1.391.692.596 1.404 1.191 1.819 2.045.08.398-.118.537-.474.497z"></path><path fill="#DACECF" d="M303.358 318.038c.159-.159.297-.338.455-.497.594.397.89 1.013 1.147 1.648.139.219.119.437-.059.616-.514-.596-1.028-1.172-1.543-1.767z"></path><path fill="#CFBCBE" d="M283.187 314.105c.158.139.296.298.455.437-.514.457-1.147.656-1.82.715.297-.576.732-.973 1.365-1.152z"></path><path fill="#AF9698" d="M304.901 319.805l.06-.616c.277.159.395.398.415.696a.423.423 0 01-.059.516c-.238-.119-.416-.298-.416-.596z"></path><path fill="#8D8182" d="M305.337 320.401l.059-.516c.336.278.416.655.376 1.072-.158-.178-.297-.377-.435-.556z"></path><path fill="#000" d="M179.755 196.924c-1.622.099-3.184-.159-4.707-.556-6.21-1.649-9.75-6.237-9.928-12.89-.059-2.126.237-4.231.633-6.296.257-1.371.494-1.55 1.997-1.708 5.241-.537 10.462-1.053 15.703-1.569 2.155-.219 4.331-.398 6.487-.616 1.483-.159 2.61.437 3.243 1.728 1.74 3.595 2.61 7.388 1.622 11.341-1.405 5.64-5.34 8.738-10.779 10.109-1.404.357-2.848.556-4.271.457z"></path><path fill="#EBA98D" d="M135.91 171.104c3.56.159 7.041.616 10.067 2.761.929.656 1.72 1.41 2.235 2.443 1.028 2.026.573 4.072-1.266 5.442-1.978 1.49-4.252 2.304-6.645 2.84-3.402.735-6.764.417-10.106-.357-1.819-.417-3.461-1.212-4.984-2.284-2.808-1.987-2.946-5.522-.277-7.687 1.84-1.489 3.995-2.244 6.27-2.701 1.562-.318 3.105-.635 4.706-.457zM224.015 185.027c-3.797.02-7.436-.556-10.64-2.82-3.421-2.403-3.342-6.177.277-8.302 2.393-1.41 4.964-2.205 7.792-2.483a23.53 23.53 0 017.753.537c2.235.536 4.37 1.469 6.032 3.177 2.155 2.245 1.839 5.323-.752 7.131-2.848 1.986-6.052 2.74-9.473 2.74-.336.02-.672.02-.989.02z"></path><path fill="#000" d="M216.856 143.795c.059 3.079-.969 4.668-3.679 4.767-8.701.358-16.928 3.059-25.333 4.846-.455.1-.91.159-1.365.219-1.76.198-3.046-.437-3.916-2.046-.91-1.688-.929-3.237.317-4.787 1.048-1.291 2.313-2.363 3.658-3.297 7.061-4.866 14.813-7.944 23.376-8.858 2.907-.317 3.916.318 5.3 3.019 1.049 2.066 1.563 4.211 1.642 6.137zM168.957 148.86c.297 3.277-1.879 5.224-4.944 4.409-6.012-1.589-12.143-2.324-18.313-2.8-1.108-.08-2.235-.199-3.323-.417-2.452-.497-3.757-2.026-3.896-4.548-.178-3.397.831-6.515 2.393-9.494.356-.695.989-1.033 1.582-1.43 2.828-1.152 5.518-.338 8.148.735 5.34 2.184 10.304 5.025 14.754 8.739 1.562 1.31 3.025 2.74 3.599 4.806z"></path><path fill="#040303" d="M167.038 167.887c-.632.933-1.404 1.092-2.353.496-3.817-2.324-8.069-2.979-12.42-3.277-1.186-1.331-.929-2.562.693-3.078a3.488 3.488 0 011.562-.139c3.856.516 7.673 1.152 11.114 3.157 1.147.696 1.899 1.411 1.404 2.841z"></path><path fill="#050403" d="M200.204 161.591c.396.219.85.378 1.187.676.494.417.632.993.375 1.608-.257.616-.791.914-1.424.815-3.5-.576-6.368.993-9.215 2.701-.455.278-.871.596-1.286.913-.593.457-1.226.835-1.978.358-.771-.497-.652-1.212-.375-1.927 2.669-3.873 6.803-4.885 11.055-5.6.613-.12 1.206.019 1.661.456z"></path><path fill="#EAA98D" d="M167.039 167.887c.079-1.251-.673-1.887-1.661-2.423-2.69-1.47-5.577-2.245-8.564-2.701-1.028-.159-2.076-.298-3.124-.298-1.919.02-2.334.834-1.424 2.641-.139 0-.297.04-.376-.02-1.345-1.132-.969-4.071.633-4.707 1.661-.655 3.322-.357 5.003-.039 2.987.576 5.795 1.569 8.386 3.157 2.571 1.609 2.531 1.649 1.127 4.39z"></path><path fill="#E9A88C" d="M168.957 148.86c-2.789-4.092-6.724-6.793-10.877-9.256a52.688 52.688 0 00-7.95-3.893c-2.492-.973-5.004-1.608-7.693-1.112.613-.615 1.542-.596 2.195-1.211.613-.576 1.463-.378 2.254-.179 4.588 1.112 8.722 3.257 12.717 5.7 2.689 1.649 5.339 3.337 7.614 5.581 1.226 1.251 2.056 2.562 1.74 4.37z"></path><path fill="#EAA98E" d="M200.204 161.591c-4.904.019-9.077 1.886-12.696 5.124.415-1.669 1.384-2.86 2.828-3.853 2.076-1.45 4.331-2.463 6.684-3.297.435-.159.871-.298 1.325-.338 1.365-.139 1.741.199 1.859 1.589v.775z"></path><path fill="#FCF1EA" d="M216.776 225.505c-.276.476-.751.397-1.186.397.277-.457.751-.397 1.186-.397zM217.567 225.127c-.178.318-.474.377-.791.377.178-.318.475-.397.791-.377z"></path><path fill="#E6E5E0" d="M245.274 136.565c.119.139.238.259.337.398-.119-.139-.238-.259-.337-.398z"></path><path fill="#6A6D6D" d="M204.14 102.424l-.416.417c-.494-1.191-.494-1.191.119-2.264.494.576.277 1.232.297 1.847z"></path><path fill="#727676" d="M239.639 104.451c-.356-.497-.435-1.033-.257-1.728.455.198.613.536.672.953-.257.199-.02.655-.415.775z"></path><path fill="#C7CDCD" d="M239.639 104.45c.099-.278.059-.635.415-.774.119.397.257.774.376 1.172-.297.198-.277.576-.416.873-.375-.357-.276-.834-.375-1.271z"></path><path fill="#E9EEEE" d="M214.403 62.761c.356-.04.613.04.772.397-.337 0-.613-.099-.772-.397zM217.983 64.728c.337-.04.613.08.732.437-.316-.02-.573-.14-.732-.437zM215.966 63.576c.356-.06.652.04.751.417-.316-.02-.613-.1-.751-.417zM215.194 63.159c.356-.04.633.04.772.417-.337 0-.613-.1-.772-.417zM216.718 63.993c.217-.04.356.08.455.278-.238.02-.396-.06-.455-.278zM218.715 65.145c.217-.02.336.08.415.278-.217.04-.356-.04-.415-.278zM217.43 64.39c.257-.02.415.08.534.318-.257.02-.455-.08-.534-.318z"></path><path fill="#FEF3F1" d="M133.003 15.73c-.06.517-.396.735-.791.815-2.077.397-3.699 1.589-5.182 2.999-.138.139-.297.258-.455.377-.336.238-.712.378-1.068.06-.375-.338-.296-.735-.039-1.053 1.641-2.066 3.738-3.436 6.309-4.032.632-.179 1.147.1 1.226.834z"></path><path fill="#D22411" d="M161.719 36.565c-.514-.04-1.048-.02-1.543-.159-.494-.159-.989-.496-.949-1.112.039-.576.494-.973 1.008-1.073.772-.119 1.563-.099 2.334-.079.752.02 1.226.397 1.226 1.211-.02.815-.534 1.133-1.285 1.152h-.791v.06z"></path><path fill="#FCE8E6" d="M129.285 21.808c-.593-.1-.791-.517-.573-.993.672-1.45 1.819-2.384 3.283-2.94.316-.12.672 0 .87.278.198.298.198.675-.059.914-1.029.913-2.097 1.767-3.145 2.641-.079.08-.237.08-.376.1z"></path><path fill="#D72A18" d="M168.957 34.935c-1.661 1.113-1.641 2.483 0 3.556-1.503-.298-1.918-.656-1.978-1.688-.059-1.093.435-1.55 1.978-1.867z"></path><path fill="#EE5D4E" d="M239.698 19.066c.771.934 1.364 1.947 1.641 3.139-1.839-.358-1.701-1.768-1.641-3.139z"></path><path fill="#FAABA3" d="M203.744 4.032l3.066-.06c.138.04.197.1.178.18-.02.099-.04.138-.08.138-1.048.04-2.135.239-3.164-.258z"></path><path fill="#FCD9D5" d="M206.928 4.31c-.02-.119-.059-.218-.099-.337h1.246c.02.119.04.218.04.337h-1.187z"></path><path fill="#EE5D4E" d="M241.34 22.185c.316.198.376.496.336.854-.336-.199-.415-.497-.336-.854z"></path><path fill="#F5E3E1" d="M230.581 44.39c-.119.397-.435.476-.791.437.158-.338.455-.417.791-.437zM229.79 44.807c-.138.377-.435.456-.791.417.178-.298.475-.397.791-.417z"></path><path fill="#F5E3E1" d="M229.019 45.224c-.158.357-.455.437-.811.397.178-.318.475-.397.811-.397z"></path><path fill="#F5E3E1" d="M228.227 45.621c-.158.377-.475.457-.831.377.178-.317.495-.377.831-.377zM231.016 44.112c-.099.198-.237.318-.454.298.059-.219.217-.318.454-.298z"></path><path fill="#040101" d="M217.964 296.985c2.966-.417 5.972-.675 8.86-1.549.573-.159 1.166-.238 1.7.119.416.278.574.695.554 1.192-.039.775-.534 1.192-1.206 1.37-2.195.636-4.43 1.172-6.724 1.252-.89.317-1.78.099-2.69.139-.771.039-1.424-.159-1.622-1.033-.178-.874.396-1.251 1.128-1.49z"></path><path fill="#40120D" d="M217.963 296.985c-.435.457-1.008.834-.692 1.629.297.774.969.715 1.602.734.771.02 1.523.02 2.294.04-1.028.556-2.155.358-3.223.358-1.108 0-1.82-.616-1.721-1.411.119-.993.712-1.489 1.74-1.35z"></path><path fill="#E3E3E3" d="M131.362 250.549c0 .596.059 1.192-.02 1.768-.099.695-.554 1.172-1.266 1.331-.751.159-1.503.059-1.898-.656-.851-1.489-1.068-3.078-.415-4.687.316-.755.81-1.37 1.74-1.311.751.04 1.701.954 1.819 1.808.099.556.04 1.152.04 1.747z"></path><path fill="#F6E6E4" d="M183.948 70.21c-.396.675-1.029.437-1.602.417.455-.457 1.028-.417 1.602-.417z"></path><path fill="#F6E6E4" d="M185.154 69.892c-.317.457-.771.417-1.226.338.336-.398.771-.398 1.226-.338z"></path><path fill="#1B1513" d="M200.224 300.6c-1.721-.457-3.422-.914-5.142-1.371-.495-.596-2.116-.298-1.662-1.39.376-.933 1.503-.02 2.255.139 1.582.358 3.144.814 4.727 1.231.494.139 1.226.1 1.206.755-.02.894-.87.517-1.384.636z"></path><path fill="#16100E" d="M173.228 284.273c-1.523-.297-1.72-.476-1.602-1.807.04-.516.159-1.033.297-1.529.158-.636.376-1.291 1.167-1.391.811-.099 1.107.537 1.404 1.133-.455 1.191-.099 2.661-1.266 3.594z"></path><path fill="#F8CDB5" d="M262.639 239.785c-.514-.596-1.107-1.132-1.206-1.986.83.417 1.285 1.033 1.206 1.986zM263.034 240.202l-.395-.397c.138.119.257.258.395.397z"></path><path fill="#E6ECEC" d="M138.125 287.054c.138-.139.257-.278.396-.397a3.71 3.71 0 00-.396.397z"></path><path fill="#E1E1E1" d="M237.028 252.02c.138.258.277.516.435.774-.059.06-.138.099-.198.159-.494-.06-.573-.338-.415-.755l.178-.178z"></path><path fill="#0C0C0C" d="M236.85 252.198c.04.318.178.556.416.755.039 1.112.118 2.244.098 3.356-.019 1.093-.514 1.728-1.245 1.649-.89-.08-1.167-.715-1.207-1.53-.039-.913-.099-1.847-.079-2.76.04-1.45.316-1.629 2.017-1.47z"></path><path fill="#DEB7A4" d="M197 236.627c-.138.119-.257.238-.396.357.139-.139.277-.238.396-.357z"></path><path fill="#FEF9F7" d="M298.909 280.361c-1.622-.139-3.402-.795-5.182-1.371-.316-.099-.553-.357-.514-.735.06-.456.396-.715.811-.675.633.06 1.266.219 1.899.358 1.265.278 2.551.536 3.797.854.534.139 1.305.238 1.167 1.033-.119.675-.811.496-1.306.536h-.672z"></path><path fill="#FCF3EE" d="M305.337 280.639c-.02.596-.336.815-.87.854-.811.06-1.721-.437-1.662-.973.06-.596.554-.655 1.009-.635.653 0 1.384-.159 1.523.754z"></path><path fill="#0E0801" d="M60.264 131.183c.02.993-.277 1.47-.93 1.629-.593.139-1.127-.179-1.285-.675-.593-1.847-1.68-3.416-2.67-5.045-.316-.516-.217-1.033.257-1.41.475-.358 1.049-.378 1.444.04a12.02 12.02 0 013.184 5.461z"></path><path fill="#FFFAF4" d="M39.282 118.829c.04.616-.317.993-.791 1.271-1.582.934-3.165 1.887-4.648 2.999-.395.298-.83.457-1.266.08-.494-.437-.375-.953-.118-1.43.158-.278.336-.596.593-.795a19.1 19.1 0 014.727-2.84c.85-.317 1.463.02 1.503.715z"></path><path fill="#170D01" d="M55.4 133.765a.97.97 0 01-.791-.397c-.593-.874-1.206-1.728-1.72-2.641-.297-.497-.159-1.053.316-1.411.474-.357 1.008-.317 1.463.06.87.735 1.543 1.648 1.919 2.721.316.894-.277 1.688-1.187 1.668z"></path><path fill="#FFFBF5" d="M30.363 126.437c0 1.668-.574 2.622-1.246 3.515-.455.616-1.286.358-1.523-.377-.218-.735.613-3.317 1.226-3.853.277-.238.574-.298.91-.139.554.278.633.794.633.854z"></path><path fill="#292828" d="M120.009 350.233c0 .715-.197 1.351-.988 1.47-.791.119-1.226-.397-1.404-1.093-.159-.635-.297-1.29-.337-1.946-.039-.655.317-1.152.989-1.271.593-.099 1.029.199 1.246.735.297.655.475 1.37.494 2.105z"></path><path fill="#030201" d="M23.48 286.26c-1.879-.894-3.421-2.225-4.845-3.695-4.865-4.985-8.465-10.745-10.284-17.557a18.395 18.395 0 01-.554-3.118c-.118-1.192.277-1.827 1.009-1.808.989.02 1.068.795 1.186 1.53.89 4.886 2.848 9.315 5.617 13.406 2.452 3.635 5.28 6.932 9.077 9.236.178.258.534.178.732.417l.04.02c.138.119.257.238.356.377l.02.02c.217 1.271-.317 1.767-1.543 1.549h-.02c-.217-.238-.593-.159-.791-.377z"></path><path fill="#201907" d="M31.194 287.73c.573.159 1.423.318 2.214.596.614.218.95.715.791 1.41-.158.695-.692.953-1.344.894-.85-.08-1.661-.358-2.453-.696-.593-.258-1.028-.655-.85-1.37.178-.695.732-.874 1.642-.834z"></path><path fill="#3B340E" d="M24.291 286.637c.91-.119 1.424-.635 1.543-1.549.454 1.489.059 1.907-1.543 1.549z"></path><path fill="#FAF1E4" d="M50.733 296.111c-.258.537-.732.457-1.187.437.297-.397.751-.417 1.187-.437z"></path><path fill="#FAF1E4" d="M49.566 296.547c-.277.517-.752.437-1.207.398.297-.417.752-.417 1.207-.398z"></path><path fill="#3B340E" d="M25.418 284.651c-.336.039-.593-.1-.732-.417.337-.02.594.099.732.417zM23.48 286.26c.356-.06.613.079.791.377-.355.06-.613-.099-.79-.377z"></path><path fill="#FFEAB3" d="M45.63 297.66c-.317.079-.594.059-.772-.278.258 0 .515.02.772.02v.258z"></path><path fill="#3B340E" d="M25.834 285.068c-.218-.04-.337-.179-.357-.378.238 0 .357.12.357.378z"></path><path fill="#080202" d="M296.101 315.595c.218.059.613.099.969.258 3.145 1.37 5.399 3.654 6.764 6.812.118.298.217.636.237.954.04.496-.198.913-.672 1.112-.534.238-1.049.119-1.404-.338-.238-.298-.376-.695-.534-1.052-1.167-2.483-3.026-4.251-5.518-5.363-.178-.079-.376-.119-.554-.199-.593-.258-1.008-.655-.85-1.37.158-.735.771-.814 1.562-.814z"></path><path fill="#160506" d="M299.76 323.262c-.04.794-.89 1.43-1.523.993-.949-.656-1.879-1.43-2.413-2.523-.336-.695.159-1.35.89-1.41 1.167-.099 3.125 1.807 3.046 2.94z"></path><path fill="#B31825" d="M172.26 192.316c2.155-2.641 5.043-3.992 8.286-4.449 3.342-.476 6.428.139 8.702 2.999-2.294 3.953-12.974 5.164-16.988 1.45z"></path><path fill="#252323" d="M214.404 143.974c-.02 1.688-.297 2.046-1.859 2.125-6.388.318-12.558 1.788-18.709 3.377-2.274.595-4.588 1.112-6.882 1.648-.87.199-1.661.278-2.215-.695-.534-.914-.257-1.649.297-2.364.909-1.152 2.135-1.966 3.322-2.76 5.3-3.536 11.055-6.078 17.285-7.428 1.72-.378 3.5-.457 5.241-.735.949-.159 1.344.516 1.72 1.072 1.088 1.748 1.82 3.635 1.8 5.76zM140.874 144.153c.218-1.946.692-4.171 1.879-6.236.415-.735.969-.954 1.76-.993 2.254-.1 4.272.794 6.23 1.648 4.35 1.927 8.464 4.27 12.142 7.289 1.068.874 2.018 1.907 2.947 2.92.376.397.851.933.455 1.569-.376.615-1.028.536-1.622.417-2.116-.417-4.232-.914-6.348-1.291-2.571-.457-5.162-.795-7.772-1.112-2.334-.278-4.707-.139-7.041-.676-2.037-.456-2.63-1.032-2.63-3.535z"></path></g><defs><clipPath id="clip0_1017_25428"><path fill="#fff" d="M0 0H386V395H0z" transform="translate(.005)"></path></clipPath></defs></svg>