<svg xmlns:xlink="http://www.w3.org/1999/xlink" width="16" height="16" viewBox="0 0 16 16" fill="none" xmlns="http://www.w3.org/2000/svg" class="sc-6dt8ej-0 cfLHUx"><path fill-rule="evenodd" clip-rule="evenodd" d="M2.7615 4.84863C2.88341 4.14155 3.28726 3.57436 3.72226 3.13937C4.4173 2.44434 5.56699 2.52696 6.15552 3.3142L7.11624 4.59931C7.64527 5.30696 7.57422 6.29575 6.94947 6.9205L6.88361 6.98636C6.65222 7.21775 6.65222 7.5929 6.88361 7.82428L8.17027 9.11094C8.40165 9.34233 8.7768 9.34233 9.00819 9.11094L9.07406 9.04507C9.69881 8.42033 10.6876 8.34928 11.3952 8.8783L12.69 9.84625C13.4722 10.431 13.5543 11.5732 12.8637 12.2638C12.4239 12.7036 11.8505 13.114 11.1347 13.2376C9.81696 13.4651 7.29124 13.4628 4.91151 11.083C2.53068 8.70221 2.53485 6.16314 2.7615 4.84863ZM4.56017 3.9773C4.21882 4.31865 3.99391 4.67509 3.92927 5.04997C3.74649 6.11004 3.71966 8.21534 5.74944 10.2451C7.78017 12.2758 9.87371 12.2528 10.9331 12.0699C11.3152 12.0039 11.6778 11.7738 12.0258 11.4258C12.2059 11.2458 12.1845 10.9479 11.9805 10.7954L10.6857 9.8274C10.4498 9.65107 10.1202 9.67475 9.91198 9.883L9.84611 9.94886C9.15196 10.643 8.0265 10.643 7.33235 9.94886L6.04569 8.66221C5.35153 7.96805 5.35153 6.8426 6.04569 6.14844L6.11155 6.08257C6.3198 5.87432 6.34348 5.54473 6.16714 5.30885L5.20642 4.02373C5.05011 3.81465 4.74477 3.79271 4.56017 3.9773Z" fill="currentColor"></path></svg>