<svg xmlns:xlink="http://www.w3.org/1999/xlink" id="prefix__Layer_1" data-name="Layer 1" xmlns="http://www.w3.org/2000/svg" viewBox="0 0 249.75 88.68" class="sc-6dt8ej-0 cfLHUx" width="249.75"  height="88.68" ><path fill="currentColor" d="M2 16h48.56L2.6 75.4C1.15 77.55 0 79.61 0 84.23V88h66a6 6 0 006-6v-8H21.06l45-56.5c.63-.82 2-2.32 2.52-3l.31-.35C71.47 10.37 72 7.12 72 3.13V1H2zM156 83a5 5 0 005 5h10V0h-15zM130 26.77a34 34 0 100 55V82a6 6 0 006 6h8V22.17h-14zm-20 47.5A20 20 0 11130 54v.54a20 20 0 01-20 19.73zM215.34 19.86a34.41 34.41 0 1034.41 34.41 34.4 34.4 0 00-34.41-34.41zm0 54.65a20.24 20.24 0 1120.24-20.24 20.24 20.24 0 01-20.24 20.24z"></path></svg>