<svg xmlns:xlink="http://www.w3.org/1999/xlink" width="16" height="16" viewBox="0 0 16 16" fill="none" xmlns="http://www.w3.org/2000/svg" class="sc-6dt8ej-0 cfLHUx"><path fill-rule="evenodd" clip-rule="evenodd" d="M5.73793 3.33325H10.262C10.6913 3.33325 11.0456 3.33324 11.3343 3.35682C11.6341 3.38132 11.9096 3.43388 12.1685 3.56577C12.5699 3.7703 12.8962 4.09666 13.1008 4.49807C13.2327 4.75692 13.2852 5.03249 13.3097 5.33228C13.3333 5.62091 13.3333 5.97523 13.3333 6.40455V8.79529C13.3333 9.2246 13.3333 9.57893 13.3097 9.86756C13.2852 10.1673 13.2327 10.4429 13.1008 10.7018C12.8962 11.1032 12.5699 11.4295 12.1685 11.6341C11.9096 11.766 11.6341 11.8185 11.3343 11.843C11.0456 11.8666 10.6913 11.8666 10.262 11.8666H5.73795C5.30862 11.8666 4.95429 11.8666 4.66565 11.843C4.36587 11.8185 4.09029 11.766 3.83145 11.6341C3.43003 11.4295 3.10368 11.1032 2.89915 10.7018C2.76726 10.4429 2.71469 10.1673 2.6902 9.86756C2.66661 9.57892 2.66662 9.2246 2.66663 8.79528V6.40456C2.66662 5.97524 2.66661 5.62092 2.6902 5.33228C2.71469 5.03249 2.76726 4.75692 2.89915 4.49807C3.10368 4.09666 3.43003 3.7703 3.83145 3.56577C4.09029 3.43388 4.36587 3.38132 4.66565 3.35682C4.95429 3.33324 5.30862 3.33325 5.73793 3.33325ZM4.75251 4.41995C4.51869 4.43905 4.39912 4.47368 4.3157 4.51618C4.115 4.61844 3.95182 4.78162 3.84955 4.98233C3.80705 5.06574 3.77242 5.18532 3.75332 5.41914C3.73371 5.65919 3.73329 5.96974 3.73329 6.42659V8.77325C3.73329 9.2301 3.73371 9.54065 3.75332 9.7807C3.77242 10.0145 3.80705 10.1341 3.84955 10.2175C3.95182 10.4182 4.115 10.5814 4.3157 10.6837C4.39912 10.7262 4.51869 10.7608 4.75251 10.7799C4.99256 10.7995 5.30312 10.7999 5.75996 10.7999H10.24C10.6968 10.7999 11.0074 10.7995 11.2474 10.7799C11.4812 10.7608 11.6008 10.7262 11.6842 10.6837C11.8849 10.5814 12.0481 10.4182 12.1504 10.2175C12.1929 10.1341 12.2275 10.0145 12.2466 9.7807C12.2662 9.54065 12.2666 9.2301 12.2666 8.77325V6.42659C12.2666 5.96974 12.2662 5.65919 12.2466 5.41914C12.2275 5.18532 12.1929 5.06574 12.1504 4.98233C12.0481 4.78162 11.8849 4.61844 11.6842 4.51618C11.6008 4.47368 11.4812 4.43905 11.2474 4.41995C11.0074 4.40033 10.6968 4.39992 10.24 4.39992H5.75996C5.30312 4.39992 4.99256 4.40033 4.75251 4.41995Z" fill="currentColor"></path><path fill-rule="evenodd" clip-rule="evenodd" d="M4.8935 5.69822C5.06012 5.45533 5.3921 5.3935 5.63499 5.56012L7.69826 6.97552C7.88006 7.10024 8.11986 7.10024 8.30166 6.97552L10.3649 5.56012C10.6078 5.3935 10.9398 5.45533 11.1064 5.69822C11.273 5.94111 11.2112 6.27309 10.9683 6.43972L8.90506 7.85512C8.35966 8.22926 7.64026 8.22926 7.09486 7.85512L5.03159 6.43972C4.7887 6.27309 4.72687 5.94111 4.8935 5.69822Z" fill="currentColor"></path></svg>